<svg width="29" height="27" viewBox="0 0 29 27" fill="none" xmlns="http://www.w3.org/2000/svg">
<path d="M3.70964 1.91406L2.3763 1.91406C1.63992 1.91406 1.04297 2.51102 1.04297 3.2474L1.04297 21.9141L3.04297 25.9141L5.04297 21.9141L5.04297 3.2474C5.04297 2.51102 4.44602 1.91406 3.70964 1.91406Z" stroke="#1B4D5B" stroke-width="2" stroke-linejoin="round"/>
<path d="M26.3763 13.9158L26.3763 8.58169C26.3763 5.43854 26.3763 3.86697 25.4 2.89051C24.4237 1.91406 22.8523 1.91406 19.7096 1.91406L15.7096 1.91406C12.5669 1.91406 10.9956 1.91406 10.0193 2.89051C9.04297 3.86697 9.04297 5.43854 9.04297 8.58169L9.04297 19.2499C9.04297 22.3931 9.04297 23.9646 10.0193 24.9411C10.8465 25.7684 12.1009 25.8948 14.3763 25.9141" stroke="#1B4D5B" stroke-width="2" stroke-linecap="round" stroke-linejoin="round"/>
<path d="M14.375 7.24805L21.0417 7.24805" stroke="#1B4D5B" stroke-width="2" stroke-linecap="round" stroke-linejoin="round"/>
<path d="M14.375 12.5801L21.0417 12.5801" stroke="#1B4D5B" stroke-width="2" stroke-linecap="round" stroke-linejoin="round"/>
<path d="M17.043 23.2474C17.043 23.2474 19.043 23.9141 20.3763 25.9141C20.3763 25.9141 22.3763 20.5807 27.7096 17.9141" stroke="#1B4D5B" stroke-width="2" stroke-linecap="round" stroke-linejoin="round"/>
<path d="M1.04297 7.24805L5.04297 7.24805" stroke="#1B4D5B" stroke-width="2" stroke-linecap="round" stroke-linejoin="round"/>
</svg>
