<svg width="20" height="22" viewBox="0 0 20 22" fill="none" xmlns="http://www.w3.org/2000/svg">
<path d="M1.375 10.0415C1.375 7.33093 1.375 5.97564 2.21707 5.13357C3.05914 4.2915 4.41442 4.2915 7.125 4.2915H9.04167C11.7522 4.2915 13.1075 4.2915 13.9496 5.13357C14.7917 5.97564 14.7917 7.33093 14.7917 10.0415V14.8332C14.7917 17.5437 14.7917 18.899 13.9496 19.7411C13.1075 20.5832 11.7522 20.5832 9.04167 20.5832L7.125 20.5832C4.41442 20.5832 3.05914 20.5832 2.21707 19.7411C1.375 18.899 1.375 17.5437 1.375 14.8332L1.375 10.0415Z" stroke="#1B4D5B" stroke-width="1.5"/>
<path d="M6.20982 10.7716L6.57693 10.3335C7.27535 9.49982 7.62457 9.08301 8.08398 9.08301C8.5434 9.08301 8.89261 9.49982 9.59104 10.3335L9.95814 10.7716C10.6254 11.568 10.959 11.9662 10.959 12.4372C10.959 12.9081 10.6254 13.3063 9.95814 14.1027L9.59104 14.5409C8.89262 15.3745 8.5434 15.7913 8.08398 15.7913C7.62457 15.7913 7.27535 15.3745 6.57693 14.5409L6.20982 14.1027C5.5426 13.3063 5.20898 12.9081 5.20898 12.4372C5.20898 11.9662 5.5426 11.568 6.20982 10.7716Z" stroke="#1B4D5B" stroke-width="1.5"/>
<path d="M14.7198 17.7082C15.77 17.1211 16.1272 15.8304 16.8416 13.2489L17.8518 9.59823C18.5662 7.01679 18.9234 5.72607 18.3171 4.70924C17.7108 3.69241 16.3777 3.34656 13.7117 2.65486L11.8265 2.16576C9.16042 1.47407 7.82739 1.12822 6.77722 1.71529C6.02954 2.13326 5.63313 2.90792 5.20898 4.25112" stroke="#1B4D5B" stroke-width="1.5"/>
</svg>
