<svg width="22" height="22" viewBox="0 0 22 22" fill="none" xmlns="http://www.w3.org/2000/svg">
<path d="M1.46094 8C2.73836 3.94289 6.53803 1 11.0268 1C16.225 1 20.4991 4.94668 21.002 10L19.002 9.5929" stroke="#6A6A6A" stroke-width="1.5" stroke-linecap="round" stroke-linejoin="round"/>
<path d="M20.541 14C19.2636 18.0571 15.4639 21 10.9752 21C5.77707 21 1.50297 17.0533 1 12L3.00005 12.4071" stroke="#6A6A6A" stroke-width="1.5" stroke-linecap="round" stroke-linejoin="round"/>
<path d="M8.00003 12.5279V14.5197C8.00003 14.8464 8.15583 15.1573 8.43205 15.3301C9.2757 15.8578 9.91734 16.0125 11.0035 16.046C12.0041 16.0729 12.6317 15.9156 13.5659 15.3316C13.8462 15.1564 14.007 14.8427 14.007 14.5113V12.5279M16.0093 10.0149V13.0304M6.04728 9.84365C6.40891 9.07961 8.65168 7.74957 10.6989 7.09253C10.8965 7.02914 11.1086 7.03542 11.3033 7.10674C13.1134 7.76943 15.1268 8.77168 15.8578 9.58532C16.2394 10.01 15.8662 10.552 15.4049 10.8874C14.4685 11.5682 13.4345 12.0978 11.3472 12.8996C11.1262 12.9844 10.8808 12.9873 10.6589 12.9049C8.51816 12.1101 6.51706 11.0842 6.06392 10.1817C6.0105 10.0752 5.99634 9.9512 6.04728 9.84365Z" stroke="#6A6A6A" stroke-width="1.5" stroke-linecap="round" stroke-linejoin="round"/>
</svg>
