<svg width="14" height="17" viewBox="0 0 14 17" fill="none" xmlns="http://www.w3.org/2000/svg">
<path d="M12.25 6.71552C12.25 8.64994 11.2977 10.1389 9.84873 11.1188C9.51121 11.347 9.34244 11.4612 9.25916 11.5909C9.17587 11.7207 9.14747 11.8911 9.09068 12.2318L9.04655 12.4966C8.94678 13.0952 8.89689 13.3945 8.68708 13.5723C8.47727 13.75 8.17383 13.75 7.56696 13.75H5.60834C5.00146 13.75 4.69802 13.75 4.48821 13.5723C4.2784 13.3945 4.22852 13.0952 4.12875 12.4966L4.08461 12.2318C4.02801 11.8922 3.99971 11.7224 3.91726 11.5932C3.83482 11.4641 3.66571 11.3485 3.32749 11.1173C1.89393 10.1374 1 8.64896 1 6.71552C1 3.55892 3.5184 1 6.625 1C7.01027 1 7.3865 1.03936 7.75 1.11433" stroke="#419E6A" stroke-width="1.5" stroke-linecap="round" stroke-linejoin="round"/>
<path d="M10.375 1L10.5684 1.52277C10.8221 2.20827 10.9489 2.55101 11.199 2.80104C11.449 3.05107 11.7917 3.1779 12.4772 3.43156L13 3.625L12.4772 3.81844C11.7917 4.0721 11.449 4.19893 11.199 4.44896C10.9489 4.69899 10.8221 5.04174 10.5684 5.72723L10.375 6.25L10.1816 5.72723C9.9279 5.04174 9.80107 4.69899 9.55104 4.44896C9.30101 4.19893 8.95826 4.0721 8.27277 3.81844L7.75 3.625L8.27277 3.43156C8.95826 3.1779 9.30101 3.05107 9.55104 2.80104C9.80107 2.55101 9.9279 2.20826 10.1816 1.52277L10.375 1Z" stroke="#419E6A" stroke-width="1.5" stroke-linejoin="round"/>
<path d="M8.125 13.75V14.5C8.125 15.2071 8.125 15.5607 7.90533 15.7803C7.68566 16 7.33211 16 6.625 16C5.91789 16 5.56434 16 5.34467 15.7803C5.125 15.5607 5.125 15.2071 5.125 14.5V13.75" stroke="#419E6A" stroke-width="1.5" stroke-linejoin="round"/>
</svg>
