<svg width="22" height="15" viewBox="0 0 22 15" fill="none" xmlns="http://www.w3.org/2000/svg">
<path d="M20.8966 2.13081C21.2168 3.02828 20.7678 3.64274 19.8986 4.248C19.1973 4.73636 18.3039 5.26542 17.3572 6.16992C16.4291 7.05662 15.5234 8.1246 14.7184 9.17575C13.743 10.4496 12.8206 11.7801 12.0087 13.1655C11.7026 13.6902 11.1521 14.0078 10.5619 13.9999C9.97157 13.9919 9.42933 13.6597 9.13641 13.1267C8.38765 11.764 7.80986 11.2259 7.5443 11.0326C6.8075 10.4963 6 10.4035 6 9.23351C6 8.27625 6.74623 7.50024 7.66675 7.50024C8.32548 7.52658 8.92854 7.8088 9.45594 8.19271C9.79807 8.44176 10.1605 8.77115 10.5375 9.20475C10.9799 8.55104 11.5131 7.79684 12.1107 7.01634C12.9787 5.88285 14.0032 4.66689 15.1019 3.61719C16.1819 2.58531 17.4306 1.61941 18.7542 1.10872C19.6172 0.775728 20.5764 1.23333 20.8966 2.13081Z" stroke="#00401C" stroke-width="1.5" stroke-linecap="round" stroke-linejoin="round"/>
<path d="M3.43961 7.57549C3.28117 7.52363 3.13796 7.49093 3.01252 7.47129C2.94995 7.46149 2.89226 7.45501 2.83976 7.45099L2.69887 7.44542C1.76061 7.44542 1 8.22798 1 9.19331C1 10.0669 1.62294 10.7908 2.43675 10.9205C2.4652 10.9355 2.51137 10.9624 2.57407 11.0076C2.84474 11.2025 3.43367 11.7452 4.19686 13.1193C4.49542 13.6569 5.04811 13.9918 5.64983 13.9999C6.06202 14.0054 6.45518 13.8567 6.76226 13.5924M14 1C12.6509 1.515 11.3781 2.48904 10.2773 3.52963C9.89288 3.89299 9.51738 4.27611 9.15418 4.66884" stroke="#00401C" stroke-width="1.5" stroke-linecap="round" stroke-linejoin="round"/>
</svg>
