<svg width="14" height="17" viewBox="0 0 14 17" fill="none" xmlns="http://www.w3.org/2000/svg">
<path d="M1.85714 10C1.31301 9.10612 1 8.05882 1 6.93915C1 3.65905 3.68629 1 7 1C10.3137 1 13 3.65905 13 6.93915C13 8.05882 12.687 9.10612 12.1429 10" stroke="#1B4D5B" stroke-width="1.5" stroke-linecap="round"/>
<path d="M3.53716 12.3237C3.46825 12.1162 3.4338 12.0125 3.43781 11.9285C3.4463 11.7507 3.55835 11.5947 3.72368 11.5304C3.80184 11.5 3.91079 11.5 4.12868 11.5H9.87132C10.0892 11.5 10.1982 11.5 10.2763 11.5304C10.4416 11.5947 10.5537 11.7507 10.5622 11.9285C10.5662 12.0125 10.5317 12.1162 10.4628 12.3237C10.3355 12.7071 10.2718 12.8988 10.1736 13.054C9.96789 13.3792 9.64538 13.6125 9.27292 13.7056C9.09513 13.75 8.89378 13.75 8.4911 13.75H5.5089C5.10622 13.75 4.90487 13.75 4.72708 13.7056C4.35462 13.6125 4.03211 13.3792 3.82637 13.054C3.72816 12.8988 3.66449 12.7071 3.53716 12.3237Z" stroke="#1B4D5B" stroke-width="1.5"/>
<path d="M9.25 13.75L9.15301 14.235C9.04695 14.7652 8.99392 15.0304 8.8751 15.2399C8.69137 15.5639 8.39368 15.808 8.03996 15.9246C7.81118 16 7.54079 16 7 16C6.45921 16 6.18882 16 5.96004 15.9246C5.60632 15.808 5.30863 15.5639 5.12491 15.2399C5.00608 15.0304 4.95305 14.7652 4.84699 14.235L4.75 13.75" stroke="#1B4D5B" stroke-width="1.5"/>
<path d="M7 11.5V7.75" stroke="#1B4D5B" stroke-width="1.5" stroke-linecap="round" stroke-linejoin="round"/>
</svg>
