<svg width="22" height="18" viewBox="0 0 22 18" fill="none" xmlns="http://www.w3.org/2000/svg">
<path d="M1.5 3L7 1L12.5 3L10 4.5V6C10 6 9.33333 5.5 7 5.5C4.66667 5.5 4 6 4 6V4.5L1.5 3ZM1.5 3V7" stroke="#6A6A6A" stroke-width="1.5" stroke-linecap="round" stroke-linejoin="round"/>
<path d="M10 5.5V6.38889C10 8.10711 8.65685 9.5 7 9.5C5.34315 9.5 4 8.10711 4 6.38889V5.5" stroke="#6A6A6A" stroke-width="1.5" stroke-linecap="round" stroke-linejoin="round"/>
<path d="M14.3182 8.02941C14.3182 8.02941 14.803 7.67647 16.5 7.67647C18.197 7.67647 18.6818 8.02941 18.6818 8.02941M14.3182 8.02941V7L12.5 6L16.5 4.5L20.5 6L18.6818 7V8.02941M14.3182 8.02941V8.31818C14.3182 9.52317 15.295 10.5 16.5 10.5C17.705 10.5 18.6818 9.52317 18.6818 8.31818V8.02941" stroke="#6A6A6A" stroke-width="1.5" stroke-linecap="round" stroke-linejoin="round"/>
<path d="M3.38505 12.926C2.44187 13.4525 -0.0310903 14.5276 1.47511 15.8729C2.21087 16.53 3.03033 17 4.06058 17H9.93942C10.9697 17 11.7891 16.53 12.5249 15.8729C14.0311 14.5276 11.5581 13.4525 10.6149 12.926C8.40321 11.6913 5.59679 11.6913 3.38505 12.926Z" stroke="#6A6A6A" stroke-width="1.5" stroke-linecap="round" stroke-linejoin="round"/>
<path d="M15 17H18.7048C19.4775 17 20.0921 16.624 20.6439 16.0983C21.7736 15.0221 19.9189 14.162 19.2115 13.7408C17.9362 12.9814 16.3972 12.8059 15 13.2141" stroke="#6A6A6A" stroke-width="1.5" stroke-linecap="round" stroke-linejoin="round"/>
</svg>
