<svg width="18" height="18" viewBox="0 0 18 18" fill="none" xmlns="http://www.w3.org/2000/svg">
<path d="M9 16.5C13.1421 16.5 16.5 13.1421 16.5 9C16.5 4.85786 13.1421 1.5 9 1.5C4.85786 1.5 1.5 4.85786 1.5 9C1.5 13.1421 4.85786 16.5 9 16.5Z" stroke="#EFB008" stroke-width="1.5"/>
<path d="M9.00586 7.88113C8.38454 7.88113 7.88086 8.38481 7.88086 9.00613C7.88086 9.62745 8.38454 10.1311 9.00586 10.1311C9.62718 10.1311 10.1309 9.62745 10.1309 9.00613C10.1309 8.38481 9.62718 7.88113 9.00586 7.88113ZM9.00586 7.88113V5.24927M11.261 11.2649L9.79957 9.80341" stroke="#EFB008" stroke-width="1.5" stroke-linecap="round" stroke-linejoin="round"/>
</svg>
