<svg width="18" height="15" viewBox="0 0 18 15" fill="none" xmlns="http://www.w3.org/2000/svg">
<path d="M1.5 3.5H2.25M2.25 3.5L5.59275 12.1191C6.08048 13.3767 6.32435 14.0054 6.7362 14C7.14806 13.9945 7.37611 13.3594 7.83222 12.0893L7.875 11.9702M2.25 3.5L4.875 3.5M4.875 3.5H5.59275M4.875 3.5L7.875 11.9702M7.875 11.9702L9.612 7.25" stroke="#54C8E8" stroke-width="1.5" stroke-linecap="round" stroke-linejoin="round"/>
<path d="M7.5 3.5H8.25M8.25 3.5L11.5928 12.1191C12.0805 13.3767 12.3243 14.0054 12.7362 14C13.1481 13.9945 13.3761 13.3594 13.8322 12.0893L13.875 11.9702M8.25 3.5L10.875 3.5M10.875 3.5H11.5928M10.875 3.5L13.875 11.9702M13.875 11.9702L15.3966 7.73301M15.3966 7.73301L16.1533 5.92618C16.4561 5.09324 16.5627 4.20304 16.4647 3.32332C16.3472 2.26846 15.8682 1.25 14.6259 1.25C13.4724 1.25 12.9076 2.54204 13.6423 3.42022C14.8276 4.83687 15.8789 6.40653 15.3966 7.73301Z" stroke="#141B34" stroke-width="1.5" stroke-linecap="round" stroke-linejoin="round"/>
</svg>
