<svg width="23" height="22" viewBox="0 0 23 22" fill="none" xmlns="http://www.w3.org/2000/svg">
<path d="M8.5 13.9141C8.5 11.0856 8.5 9.67142 9.37868 8.79274C10.2574 7.91406 11.6716 7.91406 14.5 7.91406L15.5 7.91406C18.3284 7.91406 19.7426 7.91406 20.6213 8.79274C21.5 9.67142 21.5 11.0856 21.5 13.9141V14.9141C21.5 17.7425 21.5 19.1567 20.6213 20.0354C19.7426 20.9141 18.3284 20.9141 15.5 20.9141H14.5C11.6716 20.9141 10.2574 20.9141 9.37868 20.0354C8.5 19.1567 8.5 17.7425 8.5 14.9141L8.5 13.9141Z" stroke="#141B34" stroke-width="1.5" stroke-linecap="round" stroke-linejoin="round"/>
<path d="M16.4999 7.91406C16.4975 4.95697 16.4528 3.42527 15.592 2.37649C15.4258 2.17395 15.2401 1.98824 15.0376 1.82202C13.9312 0.914063 12.2875 0.914063 9 0.914063C5.71252 0.914062 4.06878 0.914062 2.96243 1.82202C2.75989 1.98824 2.57418 2.17395 2.40796 2.37649C1.5 3.48284 1.5 5.12658 1.5 8.41406C1.5 11.7015 1.5 13.3453 2.40796 14.4516C2.57417 14.6542 2.75989 14.8399 2.96243 15.0061C4.01121 15.8668 5.54291 15.9116 8.5 15.9139" stroke="#141B34" stroke-width="1.5" stroke-linecap="round" stroke-linejoin="round"/>
</svg>
