<svg width="18" height="19" viewBox="0 0 18 19" fill="none" xmlns="http://www.w3.org/2000/svg">
<path d="M14.625 4.35803L14.1602 11.8769C14.0415 13.7979 13.9821 14.7584 13.5006 15.4489C13.2625 15.7904 12.956 16.0785 12.6005 16.295C11.8816 16.733 10.9192 16.733 8.99456 16.733C7.06734 16.733 6.10373 16.733 5.38429 16.2942C5.0286 16.0773 4.722 15.7886 4.48401 15.4467C4.00266 14.755 3.94459 13.7931 3.82846 11.8694L3.375 4.35803" stroke="#D83232" stroke-width="1.5" stroke-linecap="round"/>
<path d="M2.25 4.35803H15.75M12.0418 4.35803L11.5298 3.30183C11.1897 2.60022 11.0196 2.24942 10.7263 2.03064C10.6612 1.98211 10.5923 1.93894 10.5203 1.90156C10.1954 1.73303 9.80559 1.73303 9.0259 1.73303C8.22662 1.73303 7.82699 1.73303 7.49676 1.90862C7.42357 1.94754 7.35374 1.99245 7.28797 2.04291C6.99123 2.27056 6.82547 2.6342 6.49395 3.36148L6.03969 4.35803" stroke="#D83232" stroke-width="1.5" stroke-linecap="round"/>
<path d="M7.125 12.608L7.125 8.10803" stroke="#D83232" stroke-width="1.5" stroke-linecap="round"/>
<path d="M10.875 12.608L10.875 8.10803" stroke="#D83232" stroke-width="1.5" stroke-linecap="round"/>
</svg>
