<svg width="50" height="61" viewBox="0 0 50 61" fill="none" xmlns="http://www.w3.org/2000/svg">
<path opacity="0.4" d="M48.3327 24.6663V34.4172C48.3327 36.8016 48.3327 37.9938 47.8886 39.0658L45.416 39.2497C37.1664 39.2497 33.0416 39.2497 30.4788 41.8125C27.916 44.3753 27.916 48.5001 27.916 56.7497L27.4411 59.3338C26.4989 59.6663 25.47 59.6663 23.4122 59.6663C13.9476 59.6663 9.21524 59.6663 6.00989 57.082C5.36235 56.5599 4.77249 55.97 4.2504 55.3225C1.66602 52.1171 1.66602 47.3848 1.66602 37.9201V24.6663C1.66602 13.6669 1.66602 8.16718 5.08311 4.7501C8.50019 1.33301 13.9999 1.33301 24.9993 1.33301C35.9988 1.33301 41.4985 1.33301 44.9156 4.7501C48.3327 8.16718 48.3327 13.6669 48.3327 24.6663V24.6663Z" fill="#2D7083"/>
<path d="M13.332 15.9165L36.6654 15.9165" stroke="#2D7083" stroke-width="1.5" stroke-linecap="round" stroke-linejoin="round"/>
<path d="M13.332 27.583L24.9987 27.583" stroke="#2D7083" stroke-width="1.5" stroke-linecap="round" stroke-linejoin="round"/>
<path d="M27.916 58.208V56.7497C27.916 48.5001 27.916 44.3753 30.4788 41.8125C33.0416 39.2497 37.1664 39.2497 45.416 39.2497H46.8743M48.3327 34.4172V24.6663C48.3327 13.6669 48.3327 8.16718 44.9156 4.7501C41.4985 1.33301 35.9988 1.33301 24.9994 1.33301C13.9999 1.33301 8.50019 1.33301 5.08311 4.7501C1.66602 8.16718 1.66602 13.6669 1.66602 24.6663L1.66602 37.9201C1.66601 47.3848 1.66601 52.1171 4.2504 55.3225C4.77249 55.97 5.36235 56.5599 6.00989 57.082C9.21524 59.6663 13.9476 59.6663 23.4122 59.6663C25.47 59.6663 26.4989 59.6663 27.4411 59.3338C27.6371 59.2647 27.8292 59.1851 28.0167 59.0954C28.918 58.6643 29.6456 57.9368 31.1007 56.4817L44.9156 42.6668C46.6016 40.9808 47.4446 40.1377 47.8886 39.0658C48.3327 37.9938 48.3327 36.8016 48.3327 34.4172Z" stroke="#2D7083" stroke-width="1.5" stroke-linecap="round" stroke-linejoin="round"/>
</svg>
