<svg width="24" height="25" viewBox="0 0 24 25" fill="none" xmlns="http://www.w3.org/2000/svg">
<path d="M20 14.5V11.1569C20 10.3394 20 9.9306 19.8478 9.56306C19.6955 9.19552 19.4065 8.90649 18.8284 8.32843L14.0919 3.59188C13.593 3.093 13.3436 2.84355 13.0345 2.69575C12.9702 2.665 12.9044 2.63772 12.8372 2.61401C12.5141 2.5 12.1614 2.5 11.4558 2.5C8.21082 2.5 6.58831 2.5 5.48933 3.38607C5.26731 3.56508 5.06508 3.76731 4.88607 3.98933C4 5.08831 4 6.71082 4 9.95584V14.5C4 18.2712 4 20.1569 5.17157 21.3284C6.34315 22.5 8.22876 22.5 12 22.5M13 3V3.5C13 6.32843 13 7.74264 13.8787 8.62132C14.7574 9.5 16.1716 9.5 19 9.5H19.5" stroke="#1B4D5B" stroke-width="1.5" stroke-linecap="round" stroke-linejoin="round"/>
<path d="M17 22.5C17.6068 21.9102 20 20.3403 20 19.5C20 18.6597 17.6068 17.0898 17 16.5M19 19.5H12" stroke="#1B4D5B" stroke-width="1.5" stroke-linecap="round" stroke-linejoin="round"/>
</svg>
