<svg width="32" height="32" viewBox="0 0 32 32" fill="none" xmlns="http://www.w3.org/2000/svg">
<path d="M0 4C0 1.79086 1.79086 0 4 0H28C30.2091 0 32 1.79086 32 4V28C32 30.2091 30.2091 32 28 32H4C1.79086 32 0 30.2091 0 28V4Z" fill="#DFF8FF"/>
<path opacity="0.4" d="M9.98056 7.28544C13.3218 7.9216 15.3131 9.25231 16 10.0163C16.6869 9.25231 18.6782 7.9216 22.0194 7.28544C23.7121 6.96315 24.5584 6.80201 25.2792 7.41964C26 8.03727 26 9.04022 26 11.0461V18.255C26 20.0891 26 21.0061 25.5374 21.5787C25.0748 22.1512 24.0564 22.3451 22.0194 22.733C20.2037 23.0787 18.7866 23.6295 17.7608 24.1831C16.7516 24.7277 16.247 25 16 25C15.753 25 15.2484 24.7277 14.2392 24.1831C13.2134 23.6295 11.7963 23.0787 9.98056 22.733C7.94365 22.3451 6.9252 22.1512 6.4626 21.5787C6 21.0061 6 20.0891 6 18.255V11.0461C6 9.04022 6 8.03727 6.72078 7.41964C7.44157 6.80201 8.2879 6.96315 9.98056 7.28544Z" fill="#3B8FA7"/>
<path d="M16 10L16 24" stroke="#3B8FA7" stroke-width="1.5" stroke-linecap="round"/>
<path d="M9.98056 7.28544C13.3218 7.9216 15.3131 9.25231 16 10.0163C16.6869 9.25231 18.6782 7.9216 22.0194 7.28544C23.7121 6.96315 24.5584 6.80201 25.2792 7.41964C26 8.03727 26 9.04022 26 11.0461V18.255C26 20.0891 26 21.0061 25.5374 21.5787C25.0748 22.1512 24.0564 22.3451 22.0194 22.733C20.2037 23.0787 18.7866 23.6295 17.7608 24.1831C16.7516 24.7277 16.247 25 16 25C15.753 25 15.2484 24.7277 14.2392 24.1831C13.2134 23.6295 11.7963 23.0787 9.98056 22.733C7.94365 22.3451 6.9252 22.1512 6.4626 21.5787C6 21.0061 6 20.0891 6 18.255V11.0461C6 9.04022 6 8.03727 6.72078 7.41964C7.44157 6.80201 8.2879 6.96315 9.98056 7.28544Z" stroke="#3B8FA7" stroke-width="1.5" stroke-linecap="round" stroke-linejoin="round"/>
</svg>
