<svg width="20" height="19" viewBox="0 0 20 19" fill="none" xmlns="http://www.w3.org/2000/svg">
<path d="M15.8346 12.8333V11.1666C15.8346 8.8096 15.8346 7.63109 15.1024 6.89886C14.3702 6.16663 13.1917 6.16663 10.8346 6.16663H9.16797C6.81095 6.16663 5.63243 6.16663 4.9002 6.89886C4.16797 7.63109 4.16797 8.8096 4.16797 11.1666V12.8333C4.16797 15.1903 4.16797 16.3688 4.9002 17.1011C5.63243 17.8333 6.81095 17.8333 9.16797 17.8333H10.8346C13.1917 17.8333 14.3702 17.8333 15.1024 17.1011C15.8346 16.3688 15.8346 15.1903 15.8346 12.8333Z" stroke="#1B4D5B" stroke-width="1.5" stroke-linejoin="round"/>
<path d="M15.8359 14.5C17.0144 14.5 17.6037 14.5 17.9698 14.1339C18.3359 13.7678 18.3359 13.1785 18.3359 12C18.3359 10.8215 18.3359 10.2322 17.9698 9.86612C17.6037 9.5 17.0144 9.5 15.8359 9.5" stroke="#1B4D5B" stroke-width="1.5" stroke-linejoin="round"/>
<path d="M4.16797 14.5C2.98946 14.5 2.4002 14.5 2.03409 14.1339C1.66797 13.7678 1.66797 13.1785 1.66797 12C1.66797 10.8215 1.66797 10.2322 2.03409 9.86612C2.4002 9.5 2.98946 9.5 4.16797 9.5" stroke="#1B4D5B" stroke-width="1.5" stroke-linejoin="round"/>
<path d="M11.25 2.41663C11.25 3.10698 10.6904 3.66663 10 3.66663C9.30964 3.66663 8.75 3.10698 8.75 2.41663C8.75 1.72627 9.30964 1.16663 10 1.16663C10.6904 1.16663 11.25 1.72627 11.25 2.41663Z" stroke="#1B4D5B" stroke-width="1.5"/>
<path d="M10 3.66663V6.16663" stroke="#1B4D5B" stroke-width="1.5" stroke-linecap="round" stroke-linejoin="round"/>
<path d="M7.5 10.3333V11.1666" stroke="#1B4D5B" stroke-width="1.5" stroke-linecap="round" stroke-linejoin="round"/>
<path d="M12.5 10.3333V11.1666" stroke="#1B4D5B" stroke-width="1.5" stroke-linecap="round" stroke-linejoin="round"/>
<path d="M8.33594 14.0833C8.33594 14.0833 8.89149 14.4999 10.0026 14.4999C11.1137 14.4999 11.6693 14.0833 11.6693 14.0833" stroke="#1B4D5B" stroke-width="1.5" stroke-linecap="round"/>
</svg>
