<svg width="17" height="16" viewBox="0 0 17 16" fill="none" xmlns="http://www.w3.org/2000/svg">
<path d="M11.8056 11.2598C10.0296 12.4272 9.006 14.5165 8.66797 15.125V5C8.9416 4.50747 9.66446 3.20632 10.872 2.1586C11.6228 1.50713 11.9982 1.18139 12.5831 1.44827C13.168 1.71514 13.168 2.31891 13.168 3.52646V9.1164C13.168 9.75705 13.168 10.0774 13.0481 10.2996C12.9282 10.5218 12.554 10.7678 11.8056 11.2598L11.8056 11.2598Z" stroke="#54C8E8" stroke-width="1.5" stroke-linecap="round" stroke-linejoin="round"/>
<path d="M8.66797 4.85417C8.1528 4.31302 6.65928 3.0278 4.15339 2.57718C2.88389 2.3489 2.24914 2.23476 1.70856 2.67225C1.16797 3.10974 1.16797 3.82016 1.16797 5.241V10.3473C1.16797 11.6464 1.16797 12.296 1.51492 12.7016C1.86187 13.1071 2.62571 13.2445 4.15339 13.5192C5.51522 13.7641 6.57805 14.1543 7.34735 14.5463C8.10425 14.9321 8.48272 15.125 8.66797 15.125C8.85322 15.125 9.23168 14.9321 9.98858 14.5463C10.7579 14.1543 11.8207 13.7641 13.1825 13.5192C14.7102 13.2445 15.4741 13.1071 15.821 12.7016C16.168 12.296 16.168 11.6464 16.168 10.3473V5.241C16.168 3.82016 16.168 3.10974 15.6274 2.67225C15.0868 2.23476 13.918 2.57718 13.168 3.125" stroke="#141B34" stroke-width="1.5" stroke-linecap="round" stroke-linejoin="round"/>
</svg>
