<svg width="60" height="61" viewBox="0 0 60 61" fill="none" xmlns="http://www.w3.org/2000/svg">
<path opacity="0.4" d="M44.582 35.4622C44.582 34.4542 44.582 33.9501 44.7338 33.5008C45.1748 32.1955 46.3372 31.6889 47.5019 31.1585C48.8112 30.5621 49.4658 30.2639 50.1145 30.2115C50.8508 30.1519 51.5885 30.3106 52.2179 30.6638C53.0522 31.1321 53.6343 32.0219 54.23 32.7455C56.9815 36.0875 58.3573 37.7585 58.8607 39.6013C59.2669 41.0883 59.2669 42.6434 58.8607 44.1305C58.1264 46.8182 55.8068 49.0711 54.0897 51.1566C53.2114 52.2234 52.7723 52.7568 52.2179 53.068C51.5885 53.4212 50.8508 53.5798 50.1145 53.5203C49.4658 53.4678 48.8112 53.1697 47.5019 52.5733C46.3372 52.0428 45.1748 51.5363 44.7338 50.231C44.582 49.7816 44.582 49.2776 44.582 48.2696V35.4622Z" fill="#2D7083"/>
<path opacity="0.4" d="M15.4154 35.4625C15.4154 34.193 15.3797 33.0522 14.3534 32.1597C13.9801 31.8351 13.4853 31.6097 12.4955 31.1589C11.1862 30.5626 10.5316 30.2644 9.88292 30.2119C7.93678 30.0546 6.88971 31.3828 5.7674 32.7459C3.01589 36.0877 1.64013 37.7587 1.13672 39.6013C0.730469 41.0883 0.730469 42.6434 1.13672 44.1304C1.87096 46.8179 4.19063 49.0708 5.90765 51.1562C6.98995 52.4707 8.02386 53.6701 9.88292 53.5198C10.5316 53.4673 11.1862 53.1691 12.4955 52.5728C13.4853 52.122 13.9801 51.8966 14.3534 51.572C15.3797 50.6795 15.4154 49.5387 15.4154 48.2693V35.4625Z" fill="#2D7083"/>
<path d="M44.582 35.4622C44.582 34.4542 44.582 33.9501 44.7338 33.5008C45.1748 32.1955 46.3372 31.6889 47.5019 31.1585C48.8112 30.5621 49.4658 30.2639 50.1145 30.2115C50.8508 30.1519 51.5885 30.3106 52.2179 30.6638C53.0522 31.1321 53.6343 32.0219 54.23 32.7455C56.9815 36.0875 58.3573 37.7585 58.8607 39.6013C59.2669 41.0883 59.2669 42.6434 58.8607 44.1305C58.1264 46.8182 55.8068 49.0711 54.0897 51.1566C53.2114 52.2234 52.7723 52.7568 52.2179 53.068C51.5885 53.4212 50.8508 53.5799 50.1145 53.5203C49.4658 53.4678 48.8112 53.1697 47.5019 52.5733C46.3372 52.0428 45.1748 51.5363 44.7338 50.231C44.582 49.7816 44.582 49.2776 44.582 48.2696V35.4622Z" stroke="#2D7083" stroke-width="1.5"/>
<path d="M22.707 56.4492C26.7341 60.3381 33.2633 60.3381 37.2904 56.4492" stroke="#2D7083" stroke-width="1.5" stroke-linecap="round" stroke-linejoin="round"/>
<path d="M15.4154 35.4625C15.4154 34.193 15.3797 33.0522 14.3534 32.1597C13.9801 31.8351 13.4853 31.6097 12.4955 31.1589C11.1862 30.5626 10.5316 30.2644 9.88292 30.2119C7.93678 30.0546 6.88971 31.3828 5.7674 32.7459C3.01589 36.0878 1.64013 37.7587 1.13672 39.6013C0.730469 41.0883 0.730469 42.6434 1.13672 44.1304C1.87096 46.818 4.19063 49.0708 5.90765 51.1562C6.98995 52.4707 8.02386 53.6701 9.88292 53.5198C10.5316 53.4673 11.1862 53.1691 12.4955 52.5728C13.4853 52.122 13.9801 51.8966 14.3534 51.572C15.3797 50.6795 15.4154 49.5387 15.4154 48.2693V35.4625Z" stroke="#2D7083" stroke-width="1.5"/>
<path d="M0.832031 41.8655V30.1989C0.832031 14.0906 13.8904 1.03223 29.9987 1.03223C46.107 1.03223 59.1654 14.0906 59.1654 30.1989L59.1655 41.8655" stroke="#2D7083" stroke-width="1.5" stroke-linecap="round" stroke-linejoin="round"/>
</svg>
