<svg width="58" height="57" viewBox="0 0 58 57" fill="none" xmlns="http://www.w3.org/2000/svg">
<path opacity="0.4" fill-rule="evenodd" clip-rule="evenodd" d="M1.57669 15.375H56.1364L56.7077 28.5004C56.7077 41.5622 56.7077 48.0931 52.6499 52.1509C48.5921 56.2087 42.0612 56.2087 28.9993 56.2087C15.9375 56.2087 9.4066 56.2087 5.34881 52.1509C1.29102 48.0931 1.29102 41.5622 1.29102 28.5004C1.29102 23.107 1.29102 18.8271 1.57669 15.375ZM30.9065 42.6463C35.0827 40.0629 37.1708 38.7711 37.6126 36.9431C37.7949 36.1886 37.7949 35.3947 37.6126 34.6402C37.1708 32.8122 35.0827 31.5205 30.9065 28.937C26.8694 26.4396 24.8508 25.1909 23.2241 25.6928C22.5516 25.9003 21.9388 26.2944 21.4447 26.8374C20.2493 28.1505 20.2493 30.6976 20.2493 35.7917C20.2493 40.8858 20.2493 43.4328 21.4447 44.746C21.9388 45.2889 22.5516 45.683 23.2241 45.8905C24.8508 46.3925 26.8694 45.1438 30.9065 42.6463Z" fill="#2D7083"/>
<path d="M1.29102 15.375H56.7077" stroke="#2D7083" stroke-width="1.5" stroke-linejoin="round"/>
<path d="M43.582 0.791504L34.832 15.3748" stroke="#2D7083" stroke-width="1.5" stroke-linejoin="round"/>
<path d="M23.166 0.791504L14.416 15.3748" stroke="#2D7083" stroke-width="1.5" stroke-linejoin="round"/>
<path d="M1.29102 28.4998C1.29102 15.438 1.29102 8.90709 5.34881 4.8493C9.4066 0.791504 15.9375 0.791504 28.9993 0.791504C42.0612 0.791504 48.5921 0.791504 52.6499 4.8493C56.7077 8.90709 56.7077 15.438 56.7077 28.4998C56.7077 41.5617 56.7077 48.0926 52.6499 52.1504C48.5921 56.2082 42.0612 56.2082 28.9993 56.2082C15.9375 56.2082 9.4066 56.2082 5.34881 52.1504C1.29102 48.0926 1.29102 41.5617 1.29102 28.4998Z" stroke="#2D7083" stroke-width="1.5"/>
<path d="M37.6132 36.9428C37.1714 38.7708 35.0833 40.0625 30.9072 42.646C26.8701 45.1434 24.8515 46.3922 23.2248 45.8902C22.5522 45.6827 21.9395 45.2886 21.4453 44.7457C20.25 43.4325 20.25 40.8854 20.25 35.7913C20.25 30.6972 20.25 28.1502 21.4453 26.837C21.9395 26.2941 22.5522 25.9 23.2248 25.6925C24.8515 25.1905 26.8701 26.4392 30.9072 28.9367C35.0833 31.5201 37.1714 32.8119 37.6132 34.6399C37.7956 35.3944 37.7956 36.1883 37.6132 36.9428Z" stroke="#2D7083" stroke-width="1.5" stroke-linejoin="round"/>
</svg>
