<svg width="19" height="18" viewBox="0 0 19 18" fill="none" xmlns="http://www.w3.org/2000/svg">
<path d="M9.33399 16.5C8.72035 16.5 8.13413 16.2485 6.96168 15.7454C4.04322 14.4932 2.58398 13.8671 2.58398 12.814L2.58398 5.81063M9.33399 16.5C9.94762 16.5 10.5338 16.2485 11.7063 15.7454C14.6248 14.4932 16.084 13.8671 16.084 12.814L16.084 5.81063M9.33399 16.5L9.33398 9.12802M16.084 5.81063C16.084 6.26344 15.4828 6.54937 14.2804 7.12125L12.0895 8.16331C10.7374 8.80645 10.0613 9.12802 9.33398 9.12802M16.084 5.81063C16.084 5.35782 15.4828 5.07188 14.2804 4.5M2.58398 5.81063C2.58398 6.26344 3.18516 6.54937 4.38752 7.12125L6.57842 8.16331C7.93061 8.80645 8.6067 9.12802 9.33398 9.12802M2.58398 5.81063C2.58398 5.35782 3.18516 5.07188 4.38752 4.5M5.08301 9.98328L6.57842 10.6945" stroke="#54C8E8" stroke-width="1.5" stroke-linecap="round" stroke-linejoin="round"/>
<path d="M9.33398 1.5V3M12.334 2.25L11.209 3.75M6.33398 2.25L7.45898 3.75" stroke="#141B34" stroke-width="1.5" stroke-linecap="round"/>
</svg>
