<svg width="12" height="17" viewBox="0 0 12 17" fill="none" xmlns="http://www.w3.org/2000/svg">
<path d="M11.25 3.48303L6 1.23303L0.75 3.48303L3.375 4.60803V6.10803C3.375 6.10803 4.25 5.73303 6 5.73303C7.75 5.73303 8.625 6.10803 8.625 6.10803V4.60803L11.25 3.48303ZM11.25 3.48303V6.48303" stroke="#2D7083" stroke-width="1.5" stroke-linecap="round" stroke-linejoin="round"/>
<path d="M8.625 6.10803V6.85803C8.625 8.30778 7.44975 9.48303 6 9.48303C4.55025 9.48303 3.375 8.30778 3.375 6.85803V6.10803" stroke="#2D7083" stroke-width="1.5" stroke-linecap="round" stroke-linejoin="round"/>
<path d="M2.83692 12.2605C2.01164 12.7739 -0.152204 13.822 1.16572 15.1337C1.80951 15.7744 2.52654 16.2327 3.42801 16.2327H8.57199C9.47346 16.2327 10.1905 15.7744 10.8343 15.1337C12.1522 13.822 9.98836 12.7739 9.16308 12.2605C7.22781 11.0567 4.77219 11.0567 2.83692 12.2605Z" stroke="#2D7083" stroke-width="1.5" stroke-linecap="round" stroke-linejoin="round"/>
</svg>
