<svg width="22" height="23" viewBox="0 0 22 23" fill="none" xmlns="http://www.w3.org/2000/svg">
<path d="M13.0737 3.38545C13.8189 2.57808 14.1915 2.1744 14.5874 1.93893C15.5427 1.37076 16.7191 1.35309 17.6904 1.89232C18.0929 2.1158 18.4769 2.50812 19.245 3.29276C20.0131 4.0774 20.3972 4.46972 20.6159 4.88093C21.1438 5.87312 21.1265 7.07479 20.5703 8.0507C20.3398 8.45516 19.9446 8.83578 19.1543 9.59701L9.75063 18.6543C8.25288 20.0969 7.504 20.8182 6.56806 21.1837C5.63212 21.5493 4.6032 21.5224 2.54536 21.4686L2.26538 21.4613C1.63891 21.4449 1.32567 21.4367 1.14359 21.23C0.961503 21.0234 0.986362 20.7043 1.03608 20.0662L1.06308 19.7197C1.20301 17.9235 1.27297 17.0255 1.62371 16.2182C1.97444 15.4109 2.57944 14.7555 3.78943 13.4445L13.0737 3.38545Z" stroke="#1B4D5B" stroke-width="1.5" stroke-linejoin="round"/>
<path d="M12 3.5L19 10.5" stroke="#1B4D5B" stroke-width="1.5" stroke-linejoin="round"/>
<path d="M13 21.5L21 21.5" stroke="#1B4D5B" stroke-width="1.5" stroke-linecap="round" stroke-linejoin="round"/>
</svg>
