<svg width="18" height="16" viewBox="0 0 18 16" fill="none" xmlns="http://www.w3.org/2000/svg">
<path d="M3 0.983032L2.25 0.983032C1.83579 0.983032 1.5 1.31882 1.5 1.73303L1.5 12.233L2.625 14.483L3.75 12.233L3.75 1.73303C3.75 1.31882 3.41421 0.983032 3 0.983032Z" stroke="#419E6A" stroke-width="1.5" stroke-linejoin="round"/>
<path d="M15.75 7.73401V4.73358C15.75 2.96555 15.75 2.08154 15.2008 1.53229C14.6517 0.983032 13.7678 0.983032 12 0.983032L9.75 0.983032C7.98223 0.983032 7.09835 0.983032 6.54917 1.53229C6 2.08154 6 2.96555 6 4.73358L6 10.7344C6 12.5025 6 13.3865 6.54917 13.9357C7.01448 14.4011 7.72008 14.4722 9 14.483" stroke="#419E6A" stroke-width="1.5" stroke-linecap="round" stroke-linejoin="round"/>
<path d="M9 3.98303L12.75 3.98303" stroke="#419E6A" stroke-width="1.5" stroke-linecap="round" stroke-linejoin="round"/>
<path d="M9 6.98303L12.75 6.98303" stroke="#419E6A" stroke-width="1.5" stroke-linecap="round" stroke-linejoin="round"/>
<path d="M10.5 12.983C10.5 12.983 11.625 13.358 12.375 14.483C12.375 14.483 13.5 11.483 16.5 9.98303" stroke="#419E6A" stroke-width="1.5" stroke-linecap="round" stroke-linejoin="round"/>
<path d="M1.5 3.98303L3.75 3.98303" stroke="#419E6A" stroke-width="1.5" stroke-linecap="round" stroke-linejoin="round"/>
</svg>
