<svg width="46" height="47" viewBox="0 0 46 47" fill="none" xmlns="http://www.w3.org/2000/svg">
<path opacity="0.4" d="M45.5 23.4149C45.5 10.7584 35.4264 0.498213 23 0.498213C10.5736 0.498213 0.5 10.7584 0.5 23.4149C0.5 36.0714 10.5736 46.3315 23 46.3315C35.4264 46.3315 45.5 36.0714 45.5 23.4149Z" fill="#3B8FA7"/>
<path d="M45.5 23.4149C45.5 10.7584 35.4264 0.498213 23 0.498213C10.5736 0.498213 0.5 10.7584 0.5 23.4149C0.5 36.0714 10.5736 46.3315 23 46.3315C35.4264 46.3315 45.5 36.0714 45.5 23.4149Z" stroke="#3B8FA7" stroke-width="0.635593"/>
<path d="M14 25.1335C14 25.1335 17.6 27.2247 19.4 30.2897C19.4 30.2897 24.8 18.2585 32 14.248" stroke="#3B8FA7" stroke-width="0.635593" stroke-linecap="round" stroke-linejoin="round"/>
</svg>
