<svg width="18" height="18" viewBox="0 0 18 18" fill="none" xmlns="http://www.w3.org/2000/svg">
<path opacity="0.4" d="M16.5 9.23303C16.5 5.0909 13.1421 1.73303 9 1.73303C4.85786 1.73303 1.5 5.0909 1.5 9.23303C1.5 13.3752 4.85786 16.733 9 16.733C13.1421 16.733 16.5 13.3752 16.5 9.23303Z" fill="#A5E1BF"/>
<path d="M16.5 9.23303C16.5 5.0909 13.1421 1.73303 9 1.73303C4.85786 1.73303 1.5 5.0909 1.5 9.23303C1.5 13.3752 4.85786 16.733 9 16.733C13.1421 16.733 16.5 13.3752 16.5 9.23303Z" stroke="#419E6A" stroke-width="1.5"/>
<path d="M6 9.60803L7.875 11.483L12 6.98303" stroke="#419E6A" stroke-width="1.5" stroke-linecap="round" stroke-linejoin="round"/>
</svg>
