<svg width="50" height="49" viewBox="0 0 50 49" fill="none" xmlns="http://www.w3.org/2000/svg">
<path opacity="0.4" d="M10.3603 31.1639L34.3757 7.14844L42.5527 15.3254L18.5372 39.3408C15.4884 42.3896 13.964 43.914 12.1064 44.9521C10.2488 45.9901 5.86245 47.0344 1.66807 48.0331L1.66797 48.0331C2.66664 43.8387 3.71102 39.4523 4.74905 37.5947C5.78707 35.7371 7.3115 34.2127 10.3603 31.1639Z" fill="#2D7083"/>
<path d="M34.3757 7.14818L38.4642 3.05971C40.7222 0.801712 44.3831 0.80171 46.6411 3.05971C48.8991 5.31771 48.8991 8.97865 46.6411 11.2367L42.5527 15.3251M34.3757 7.14818L10.3603 31.1636C7.3115 34.2124 5.78707 35.7368 4.74905 37.5944C3.71102 39.4521 2.66664 43.8385 1.66797 48.0329C5.86239 47.0342 10.2488 45.9898 12.1064 44.9518C13.964 43.9138 15.4884 42.3894 18.5372 39.3406L42.5527 15.3251M34.3757 7.14818L42.5527 15.3251" stroke="#2D7083" stroke-width="1.5" stroke-linecap="round" stroke-linejoin="round"/>
<path d="M22.0859 48.0332H39.5859" stroke="#2D7083" stroke-width="1.5" stroke-linecap="round"/>
</svg>
