<svg width="60" height="57" viewBox="0 0 60 57" fill="none" xmlns="http://www.w3.org/2000/svg">
<path opacity="0.4" d="M12.4439 7.41127C22.1891 9.16366 27.9972 14.1617 30.0006 16.2662V56.2083C32.334 49.2083 42.6395 40.6528 47.5006 37.25V9.54167C50.4173 7.41127 54.9627 6.07962 57.065 7.78096C59.1673 9.48231 59.1673 12.2451 59.1673 17.7706V37.6283C59.1673 42.6805 59.1673 45.2067 57.8181 46.7838C56.4688 48.361 53.4984 48.8952 47.5574 49.9635L47.5574 49.9635C42.2614 50.9158 38.1281 52.4332 35.1364 53.958C32.1929 55.4582 30.7211 56.2083 30.0006 56.2083C29.2802 56.2083 27.8084 55.4582 24.8649 53.958C21.8732 52.4332 17.7399 50.9158 12.4439 49.9635C6.50296 48.8952 3.53247 48.361 2.18323 46.7838C0.833984 45.2067 0.833984 42.6805 0.833984 37.6283V17.7706C0.833984 12.2451 0.833984 9.48231 2.93627 7.78096C5.03855 6.07962 7.50702 6.5235 12.4439 7.41127Z" fill="#2D7083"/>
<path d="M46.0677 39.1843C36.7589 42.7198 31.5429 53.4309 30 56.2082V16.8332C31.4831 14.1636 36.3597 5.38564 45.0027 1.68101C46.0682 1.22431 46.6009 0.995953 47.0505 1.29236C47.5 1.58876 47.5 2.20683 47.5 3.44296V37.1996C47.5 37.9078 47.5 38.2619 47.3231 38.5183C47.1462 38.7747 46.7867 38.9112 46.0677 39.1843Z" stroke="#2D7083" stroke-width="1.5" stroke-linecap="round" stroke-linejoin="round"/>
<path d="M30.0006 16.2662C27.9972 14.1617 22.1891 9.16366 12.4439 7.41127C7.50702 6.5235 5.03855 6.07962 2.93627 7.78096C0.833984 9.48231 0.833984 12.2451 0.833984 17.7706V37.6283C0.833984 42.6805 0.833984 45.2067 2.18323 46.7838C3.53247 48.361 6.50296 48.8952 12.4439 49.9635C17.7399 50.9158 21.8732 52.4332 24.8649 53.958C27.8084 55.4582 29.2802 56.2083 30.0006 56.2083C30.7211 56.2083 32.1929 55.4582 35.1364 53.958C38.1281 52.4332 42.2614 50.9158 47.5574 49.9635C53.4983 48.8952 56.4688 48.361 57.8181 46.7838C59.1673 45.2067 59.1673 42.6805 59.1673 37.6283V17.7706C59.1673 12.2451 59.1673 9.48231 57.065 7.78096C54.9627 6.07962 50.4173 7.41127 47.5006 9.54167" stroke="#2D7083" stroke-width="1.5" stroke-linecap="round" stroke-linejoin="round"/>
</svg>
