<svg width="16" height="18" viewBox="0 0 16 18" fill="none" xmlns="http://www.w3.org/2000/svg">
<path opacity="0.4" d="M11.2328 1.5L6.56954 1.5C4.10147 1.5 2.86744 1.5 2.10071 2.23223C1.33398 2.96447 1.33398 4.14298 1.33398 6.5L1.42248 11.5L11.2328 11.5C13.0853 11.5 14.0116 11.5 14.4046 11.0213C14.5133 10.8888 14.593 10.7367 14.6387 10.5742C14.8039 9.98667 14.2481 9.27899 13.1366 7.86364C12.6742 7.27488 12.443 6.98049 12.4019 6.64592C12.3899 6.54897 12.3899 6.45103 12.4019 6.35408C12.443 6.01951 12.6742 5.72512 13.1366 5.13636C14.2481 3.72101 14.8039 3.01333 14.6387 2.42581C14.593 2.26325 14.5133 2.11119 14.4046 1.97873C14.0116 1.5 13.0853 1.5 11.2328 1.5L11.2328 1.5Z" fill="#9ED0AC"/>
<path d="M11.2328 1.5L6.56954 1.5C4.10147 1.5 2.86744 1.5 2.10071 2.23223C1.33398 2.96447 1.33398 4.14298 1.33398 6.5L1.42248 11.5L11.2328 11.5C13.0853 11.5 14.0116 11.5 14.4046 11.0213C14.5133 10.8888 14.593 10.7367 14.6387 10.5742C14.8039 9.98667 14.2481 9.27899 13.1366 7.86364C12.6742 7.27488 12.443 6.98049 12.4019 6.64592C12.3899 6.54897 12.3899 6.45103 12.4019 6.35408C12.443 6.01951 12.6742 5.72512 13.1366 5.13636C14.2481 3.72101 14.8039 3.01333 14.6387 2.42581C14.593 2.26325 14.5133 2.11119 14.4046 1.97873C14.0116 1.5 13.0853 1.5 11.2328 1.5L11.2328 1.5Z" stroke="#4CB76C" stroke-width="1.5" stroke-linecap="round" stroke-linejoin="round"/>
<path d="M1.33398 16.5L1.33398 5.66667" stroke="#4CB76C" stroke-width="1.5" stroke-linecap="round"/>
</svg>
