<svg width="54" height="61" viewBox="0 0 54 61" fill="none" xmlns="http://www.w3.org/2000/svg">
<path opacity="0.4" d="M11.199 16.809C19.9696 18.3552 25.1969 21.5896 27 23.4465C28.8031 21.5896 34.0304 18.3552 42.801 16.809C47.2443 16.0257 49.4659 15.634 51.3579 17.1352C53.25 18.6364 53.25 21.0741 53.25 25.9495V43.471C53.25 47.9289 53.25 50.1579 52.0357 51.5495C50.8214 52.9411 48.1479 53.4124 42.801 54.3551C38.0346 55.1954 34.3147 56.5342 31.6222 57.8796C28.973 59.2034 27.6484 59.8652 27 59.8652C26.3516 59.8652 25.027 59.2034 22.3778 57.8796C19.6853 56.5342 15.9654 55.1954 11.199 54.3551C5.85208 53.4124 3.17864 52.9411 1.96432 51.5495C0.75 50.1579 0.75 47.9289 0.75 43.471V25.9495C0.75 21.0741 0.75 18.6364 2.64206 17.1352C4.53411 15.634 6.75573 16.0257 11.199 16.809Z" fill="#2D7083"/>
<path d="M11.199 16.809C19.9696 18.3552 25.1969 21.5896 27 23.4465C28.8031 21.5896 34.0304 18.3552 42.801 16.809C47.2443 16.0257 49.4659 15.634 51.3579 17.1352C53.25 18.6364 53.25 21.0741 53.25 25.9495V43.471C53.25 47.9289 53.25 50.1579 52.0357 51.5495C50.8214 52.9411 48.1479 53.4124 42.801 54.3551C38.0346 55.1954 34.3147 56.5342 31.6222 57.8796C28.973 59.2033 27.6484 59.8652 27 59.8652C26.3516 59.8652 25.027 59.2033 22.3778 57.8796C19.6853 56.5342 15.9654 55.1954 11.199 54.3551C5.85208 53.4124 3.17864 52.9411 1.96432 51.5495C0.75 50.1579 0.75 47.9289 0.75 43.471V25.9495C0.75 21.0741 0.75 18.6364 2.64206 17.1352C4.53411 15.634 6.75573 16.0257 11.199 16.809Z" stroke="#2D7083" stroke-width="1.5" stroke-linecap="round" stroke-linejoin="round"/>
<path d="M27 21.9492L27 59.8659" stroke="#2D7083" stroke-width="1.5" stroke-linejoin="round"/>
<path d="M16.793 4.61973C19.7428 2.66381 23.2357 1.53223 26.9797 1.53223C30.742 1.53223 34.2508 2.67488 37.2096 4.64842M31.7327 11.7406C30.3324 10.8955 28.7097 10.4123 26.9797 10.4123C25.2682 10.4123 23.6617 10.8852 22.2716 11.7137" stroke="#2D7083" stroke-width="1.5" stroke-linecap="round"/>
</svg>
