<svg width="60" height="55" viewBox="0 0 60 55" fill="none" xmlns="http://www.w3.org/2000/svg">
<path opacity="0.4" d="M12.442 1.78174C22.1871 3.63721 27.9953 7.51846 29.9987 9.74671C32.0021 7.51846 37.8102 3.63721 47.5554 1.78174C52.4923 0.84175 54.9608 0.371755 57.0631 2.17318C59.1654 3.9746 59.1654 6.89987 59.1654 12.7504V33.7762C59.1654 39.1257 59.1654 41.8004 57.8161 43.4703C56.4669 45.1403 53.4964 45.7059 47.5554 46.837C42.2594 47.8454 38.1262 49.452 35.1344 51.0665C32.1909 52.655 30.7191 53.4492 29.9987 53.4492C29.2783 53.4492 27.8065 52.655 24.863 51.0665C21.8712 49.452 17.738 47.8454 12.442 46.837C6.50101 45.7059 3.53052 45.1403 2.18127 43.4703C0.832031 41.8004 0.832031 39.1257 0.832031 33.7762V12.7504C0.832031 6.89987 0.832031 3.9746 2.93432 2.17318C5.0366 0.371755 7.50507 0.84175 12.442 1.78174Z" fill="#2D7083"/>
<path d="M30 9.69922L30 50.5326" stroke="#2D7083" stroke-width="1.5" stroke-linecap="round"/>
<path d="M12.442 1.78174C22.1871 3.63721 27.9953 7.51846 29.9987 9.74671C32.0021 7.51846 37.8103 3.63721 47.5554 1.78174C52.4923 0.84175 54.9608 0.371755 57.0631 2.17318C59.1654 3.9746 59.1654 6.89987 59.1654 12.7504V33.7762C59.1654 39.1257 59.1654 41.8004 57.8161 43.4703C56.4669 45.1403 53.4964 45.7059 47.5554 46.837C42.2594 47.8454 38.1262 49.452 35.1344 51.0665C32.1909 52.655 30.7191 53.4492 29.9987 53.4492C29.2783 53.4492 27.8065 52.655 24.863 51.0665C21.8712 49.452 17.738 47.8454 12.442 46.837C6.50101 45.7059 3.53052 45.1403 2.18128 43.4703C0.832031 41.8004 0.832031 39.1257 0.832031 33.7762V12.7504C0.832031 6.89987 0.832031 3.9746 2.93432 2.17318C5.0366 0.371755 7.50507 0.84175 12.442 1.78174Z" stroke="#2D7083" stroke-width="1.5" stroke-linecap="round" stroke-linejoin="round"/>
</svg>
