<svg width="32" height="32" viewBox="0 0 32 32" fill="none" xmlns="http://www.w3.org/2000/svg">
<path d="M0 4C0 1.79086 1.79086 0 4 0H28C30.2091 0 32 1.79086 32 4V28C32 30.2091 30.2091 32 28 32H4C1.79086 32 0 30.2091 0 28V4Z" fill="#FFEBEB"/>
<path d="M24 15V20H19" stroke="#D83232" stroke-width="1.5" stroke-linecap="round" stroke-linejoin="round"/>
<path d="M24 20L19 15C18.1174 14.1174 17.6762 13.6762 17.1346 13.6274C17.045 13.6193 16.955 13.6193 16.8654 13.6274C16.3238 13.6762 15.8826 14.1174 15 15C14.1174 15.8826 13.6762 16.3238 13.1346 16.3726C13.045 16.3807 12.955 16.3807 12.8654 16.3726C12.3238 16.3238 11.8826 15.8826 11 15L8 12" stroke="#D83232" stroke-width="1.5" stroke-linecap="round" stroke-linejoin="round"/>
</svg>
