<svg width="41" height="41" viewBox="0 0 41 41" fill="none" xmlns="http://www.w3.org/2000/svg">
<path d="M0.5 3.49184C0.5 1.85217 1.82922 0.522949 3.4689 0.522949H37.5311C39.1708 0.522949 40.5 1.85217 40.5 3.49185V37.5541C40.5 39.1937 39.1708 40.5229 37.5311 40.5229H3.4689C1.82922 40.5229 0.5 39.1937 0.5 37.5541V3.49184Z" fill="#DFF8FF"/>
<circle opacity="0.4" cx="14.8153" cy="14.8382" r="4.20198" fill="#2D7083"/>
<circle opacity="0.4" cx="26.1844" cy="26.2078" r="4.20198" fill="#2D7083"/>
<circle cx="14.8153" cy="14.8382" r="4.20198" stroke="#2D7083" stroke-width="0.508475"/>
<path d="M28.8308 13.5181C28.3137 12.7598 27.432 12.2603 26.4312 12.2603C25.4303 12.2603 24.5486 12.7598 24.0315 13.5181C23.7257 13.9665 23.5474 14.5054 23.5474 15.0852C23.5474 15.665 23.7258 16.204 24.0316 16.6524C24.5487 17.4107 25.4304 17.91 26.4312 17.91C27.4319 17.91 28.3136 17.4107 28.8307 16.6524C29.1365 16.204 29.3149 15.665 29.3149 15.0852C29.3149 14.5054 29.1366 13.9665 28.8308 13.5181Z" fill="#2D7083"/>
<path d="M26.4312 17.91V19.04M26.4312 17.91C25.4304 17.91 24.5487 17.4107 24.0316 16.6524M26.4312 17.91C27.4319 17.91 28.3136 17.4107 28.8307 16.6524M26.4312 12.2603C27.432 12.2603 28.3137 12.7598 28.8308 13.5181M26.4312 12.2603C25.4303 12.2603 24.5486 12.7598 24.0315 13.5181M26.4312 12.2603V11.1304M29.8916 12.8253L28.8308 13.5181M22.9711 17.3451L24.0316 16.6524M22.9707 12.8253L24.0315 13.5181M29.8912 17.3451L28.8307 16.6524M28.8308 13.5181C29.1366 13.9665 29.3149 14.5054 29.3149 15.0852C29.3149 15.665 29.1365 16.204 28.8307 16.6524M24.0315 13.5181C23.7257 13.9665 23.5474 14.5054 23.5474 15.0852C23.5474 15.665 23.7258 16.204 24.0316 16.6524" stroke="#2D7083" stroke-width="0.508475" stroke-linecap="round"/>
<circle cx="26.1844" cy="26.2078" r="4.20198" stroke="#2D7083" stroke-width="0.508475"/>
<circle cx="14.8153" cy="26.2078" r="4.20198" stroke="#2D7083" stroke-width="0.508475"/>
</svg>
