<svg width="28" height="28" viewBox="0 0 28 28" fill="none" xmlns="http://www.w3.org/2000/svg">
<path d="M1.20898 13.9147C1.20898 7.94359 1.20898 4.95803 3.06397 3.10304C4.91897 1.24805 7.90453 1.24805 13.8757 1.24805C19.8468 1.24805 22.8323 1.24805 24.6873 3.10304C26.5423 4.95803 26.5423 7.94359 26.5423 13.9147C26.5423 19.8858 26.5423 22.8714 24.6873 24.7264C22.8323 26.5814 19.8468 26.5814 13.8757 26.5814C7.90453 26.5814 4.91897 26.5814 3.06397 24.7264C1.20898 22.8714 1.20898 19.8858 1.20898 13.9147Z" stroke="#1B4D5B" stroke-width="2"/>
<path d="M13.875 8.58008V19.2467" stroke="#1B4D5B" stroke-width="2" stroke-linecap="round" stroke-linejoin="round"/>
<path d="M9.875 11.248V16.5814" stroke="#1B4D5B" stroke-width="2" stroke-linecap="round" stroke-linejoin="round"/>
<path d="M5.875 12.5801V15.2467" stroke="#1B4D5B" stroke-width="2" stroke-linecap="round" stroke-linejoin="round"/>
<path d="M17.875 11.248V16.5814" stroke="#1B4D5B" stroke-width="2" stroke-linecap="round" stroke-linejoin="round"/>
<path d="M21.875 12.5801V15.2467" stroke="#1B4D5B" stroke-width="2" stroke-linecap="round" stroke-linejoin="round"/>
</svg>
