<svg width="14" height="13" viewBox="0 0 14 13" fill="none" xmlns="http://www.w3.org/2000/svg">
<path opacity="0.4" d="M2.33268 1.48303H1.74935C1.42718 1.48303 1.16602 1.7442 1.16602 2.06637L1.16602 3.81637L2.91602 3.81637L2.91602 2.06637C2.91602 1.7442 2.65485 1.48303 2.33268 1.48303Z" fill="#1B4D5B"/>
<path d="M2.33268 1.48303H1.74935C1.42718 1.48303 1.16602 1.7442 1.16602 2.06637L1.16602 10.233L2.04102 11.983L2.91602 10.233L2.91602 2.06637C2.91602 1.7442 2.65485 1.48303 2.33268 1.48303Z" stroke="#1B4D5B" stroke-width="1.5" stroke-linejoin="round"/>
<path d="M12.2493 6.73379V4.40012C12.2493 3.02499 12.2493 2.33743 11.8222 1.91023C11.3951 1.48303 10.7076 1.48303 9.33268 1.48303L7.58268 1.48303C6.20775 1.48303 5.52029 1.48303 5.09315 1.91023C4.66602 2.33743 4.66602 3.02499 4.66602 4.40012L4.66602 9.06746C4.66602 10.4426 4.66602 11.1302 5.09315 11.5574C5.45506 11.9193 6.00385 11.9746 6.99935 11.983" stroke="#1B4D5B" stroke-width="1.5" stroke-linecap="round" stroke-linejoin="round"/>
<path opacity="0.4" d="M9.33268 1.48303L7.58268 1.48303C6.20775 1.48303 5.52029 1.48303 5.09315 1.91017C4.66602 2.3373 4.66602 3.02477 4.66602 4.3997L4.66602 9.06637C4.66602 10.4413 4.66602 11.1288 5.09315 11.5559C5.52029 11.983 6.20775 11.983 7.58268 11.983L9.33268 11.983C10.7076 11.983 11.3951 11.983 11.8222 11.5559C12.2493 11.1288 12.2493 10.4413 12.2493 9.06637L12.2493 4.3997C12.2493 3.02477 12.2493 2.3373 11.8222 1.91017C11.3951 1.48303 10.7076 1.48303 9.33268 1.48303Z" fill="#1B4D5B"/>
<path d="M7 3.81635L9.91667 3.81635" stroke="#1B4D5B" stroke-width="1.5" stroke-linecap="round" stroke-linejoin="round"/>
<path d="M7 6.14972L9.91667 6.14972" stroke="#1B4D5B" stroke-width="1.5" stroke-linecap="round" stroke-linejoin="round"/>
<path d="M8.16602 10.8164C8.16602 10.8164 9.04102 11.108 9.62435 11.983C9.62435 11.983 10.4993 9.6497 12.8327 8.48303" stroke="#1B4D5B" stroke-width="1.5" stroke-linecap="round" stroke-linejoin="round"/>
<path d="M1.16602 3.81635L2.91602 3.81635" stroke="#1B4D5B" stroke-width="1.5" stroke-linecap="round" stroke-linejoin="round"/>
</svg>
