<svg width="60" height="55" viewBox="0 0 60 55" fill="none" xmlns="http://www.w3.org/2000/svg">
<path opacity="0.4" d="M30.0007 1.25H18.334C10.0844 1.25 5.95962 1.25 3.3968 3.81282C0.833984 6.37563 0.833984 10.5004 0.833984 18.75V36.25C0.833984 44.4996 0.833984 48.6244 3.3968 51.1872C5.95962 53.75 10.0844 53.75 18.334 53.75H47.5007V18.75C47.5007 10.5004 47.5007 6.37563 44.9378 3.81282C42.375 1.25 38.2502 1.25 30.0007 1.25Z" fill="#2D7083"/>
<path d="M47.5007 36.25V18.75C47.5007 10.5004 47.5007 6.37563 44.9378 3.81282C42.375 1.25 38.2502 1.25 30.0007 1.25H18.334C10.0844 1.25 5.95962 1.25 3.3968 3.81282C0.833984 6.37563 0.833984 10.5004 0.833984 18.75V36.25C0.833984 44.4996 0.833984 48.6244 3.3968 51.1872C5.95962 53.75 10.0844 53.75 18.334 53.75H53.334" stroke="#2D7083" stroke-width="1.5" stroke-linecap="round" stroke-linejoin="round"/>
<path d="M12.5007 15.8335L35.834 15.8335" stroke="#2D7083" stroke-width="1.5" stroke-linecap="round" stroke-linejoin="round"/>
<path d="M12.5007 27.5L35.834 27.5" stroke="#2D7083" stroke-width="1.5" stroke-linecap="round" stroke-linejoin="round"/>
<path d="M12.5013 39.1665L24.168 39.1665" stroke="#2D7083" stroke-width="1.5" stroke-linecap="round" stroke-linejoin="round"/>
<path d="M47.5 15.8335H50.4167C54.5415 15.8335 56.6038 15.8335 57.8853 17.1149C59.1667 18.3963 59.1667 20.4587 59.1667 24.5835V47.9168C59.1667 51.1385 56.555 53.7502 53.3333 53.7502C50.1117 53.7502 47.5 51.1385 47.5 47.9168V15.8335Z" stroke="#2D7083" stroke-width="1.5" stroke-linecap="round" stroke-linejoin="round"/>
</svg>
