<svg width="31" height="31" viewBox="0 0 31 31" fill="none" xmlns="http://www.w3.org/2000/svg">
<path d="M4.5 0.522949H26.5C28.433 0.522949 30 2.08995 30 4.02295V26.0229C30 27.9559 28.433 29.5229 26.5 29.5229H4.5C2.567 29.5229 1 27.9559 1 26.0229V4.02295C1 2.08995 2.567 0.522949 4.5 0.522949Z" fill="#EDFBFF"/>
<path d="M4.5 0.522949H26.5C28.433 0.522949 30 2.08995 30 4.02295V26.0229C30 27.9559 28.433 29.5229 26.5 29.5229H4.5C2.567 29.5229 1 27.9559 1 26.0229V4.02295C1 2.08995 2.567 0.522949 4.5 0.522949Z" stroke="#DFF8FF"/>
<path d="M21.8613 14.3864C22.064 14.6706 22.1654 14.8128 22.1654 15.0231C22.1654 15.2335 22.064 15.3756 21.8613 15.6598C20.9506 16.9368 18.6248 19.6898 15.4987 19.6898C12.3726 19.6898 10.0468 16.9368 9.13606 15.6598C8.93337 15.3756 8.83203 15.2335 8.83203 15.0231C8.83203 14.8128 8.93337 14.6706 9.13606 14.3864C10.0468 13.1094 12.3726 10.3564 15.4987 10.3564C18.6248 10.3564 20.9506 13.1094 21.8613 14.3864Z" stroke="#1B4D5B" stroke-width="0.927273"/>
<path d="M17.5 15.0229C17.5 13.9184 16.6046 13.0229 15.5 13.0229C14.3954 13.0229 13.5 13.9184 13.5 15.0229C13.5 16.1275 14.3954 17.0229 15.5 17.0229C16.6046 17.0229 17.5 16.1275 17.5 15.0229Z" stroke="#1B4D5B" stroke-width="0.927273"/>
</svg>
