<svg width="60" height="61" viewBox="0 0 60 61" fill="none" xmlns="http://www.w3.org/2000/svg">
<circle opacity="0.4" cx="13.2279" cy="13.9281" r="12.3958" fill="#2D7083"/>
<circle opacity="0.4" cx="46.7708" cy="47.4701" r="12.3958" fill="#2D7083"/>
<circle cx="13.2279" cy="13.9281" r="12.3958" stroke="#2D7083" stroke-width="1.5"/>
<path d="M54.5764 10.034C53.051 7.79691 50.4498 6.32357 47.4974 6.32357C44.545 6.32357 41.9438 7.79691 40.4184 10.034C39.5164 11.3568 38.9905 12.9467 38.9905 14.6569C38.9905 16.3673 39.5165 17.9574 40.4187 19.2803C41.9442 21.5171 44.5452 22.9902 47.4974 22.9902C50.4496 22.9902 53.0506 21.5171 54.5761 19.2803C55.4783 17.9574 56.0043 16.3673 56.0043 14.6569C56.0043 12.9467 55.4784 11.3568 54.5764 10.034Z" fill="#2D7083"/>
<path d="M47.4974 22.9902V26.3236M47.4974 22.9902C44.5452 22.9902 41.9442 21.5171 40.4187 19.2803M47.4974 22.9902C50.4496 22.9902 53.0506 21.5171 54.5761 19.2803M47.4974 6.32357C50.4498 6.32357 53.051 7.79691 54.5764 10.034M47.4974 6.32357C44.545 6.32357 41.9438 7.79691 40.4184 10.034M47.4974 6.32357V2.99023M57.7057 7.99023L54.5764 10.034M37.2901 21.3236L40.4187 19.2803M37.2891 7.99023L40.4184 10.034M57.7046 21.3236L54.5761 19.2803M54.5764 10.034C55.4784 11.3568 56.0043 12.9467 56.0043 14.6569C56.0043 16.3673 55.4783 17.9574 54.5761 19.2803M40.4184 10.034C39.5164 11.3568 38.9905 12.9467 38.9905 14.6569C38.9905 16.3673 39.5165 17.9574 40.4187 19.2803" stroke="#2D7083" stroke-width="1.5" stroke-linecap="round"/>
<circle cx="46.7708" cy="47.4701" r="12.3958" stroke="#2D7083" stroke-width="1.5"/>
<ellipse cx="13.2279" cy="47.4701" rx="12.3958" ry="12.3958" stroke="#2D7083" stroke-width="1.5"/>
</svg>
