<svg width="32" height="32" viewBox="0 0 32 32" fill="none" xmlns="http://www.w3.org/2000/svg">
<path d="M0 4C0 1.79086 1.79086 0 4 0H28C30.2091 0 32 1.79086 32 4V28C32 30.2091 30.2091 32 28 32H4C1.79086 32 0 30.2091 0 28V4Z" fill="#DFF8FF"/>
<path d="M15 18L13.0714 12.5M13.0714 12.5L11.3793 7.67442C11.3324 7.54046 11.3089 7.47349 11.2792 7.4166C11.1653 7.19858 10.9709 7.0495 10.7493 7.01024C10.6915 7 10.6277 7 10.5 7C10.3723 7 10.3085 7 10.2507 7.01024C10.0291 7.0495 9.83469 7.19858 9.72083 7.4166C9.69112 7.47349 9.66763 7.54046 9.62066 7.67442L7.92857 12.5M13.0714 12.5L7.92857 12.5M7.92857 12.5L6 18" stroke="#3B8FA7" stroke-width="1.5" stroke-linecap="round" stroke-linejoin="round"/>
<g opacity="0.4">
<path d="M24 23C24 24.1046 23.1046 25 22 25C20.8954 25 20 24.1046 20 23C20 21.8954 20.8954 21 22 21C23.1046 21 24 21.8954 24 23Z" fill="#3B8FA7"/>
<path d="M12 23C12 24.1046 11.1046 25 10 25C8.89543 25 8 24.1046 8 23C8 21.8954 8.89543 21 10 21C11.1046 21 12 21.8954 12 23Z" fill="#3B8FA7"/>
</g>
<path d="M24 23C24 24.1046 23.1046 25 22 25C20.8954 25 20 24.1046 20 23M24 23C24 21.8954 23.1046 21 22 21C20.8954 21 20 21.8954 20 23M24 23H26M20 23L12 23M12 23C12 24.1046 11.1046 25 10 25C8.89543 25 8 24.1046 8 23M12 23C12 21.8954 11.1046 21 10 21C8.89543 21 8 21.8954 8 23M8 23H6" stroke="#3B8FA7" stroke-width="1.5" stroke-linecap="round"/>
<path d="M19 12.5V9C19 8.05719 19 7.58579 19.2929 7.29289C19.5858 7 20.0572 7 21 7H22.25C23.7688 7 25 8.23122 25 9.75C25 11.2688 23.7688 12.5 22.25 12.5H19ZM19 12.5H23.25C24.7688 12.5 26 13.7312 26 15.25C26 16.7688 24.7688 18 23.25 18H21C20.0572 18 19.5858 18 19.2929 17.7071C19 17.4142 19 16.9428 19 16L19 12.5Z" stroke="#3B8FA7" stroke-width="1.5" stroke-linecap="round" stroke-linejoin="round"/>
</svg>
