<svg width="14" height="18" viewBox="0 0 14 18" fill="none" xmlns="http://www.w3.org/2000/svg">
<path d="M13 9.98303V8.22567C13 7.61255 13 7.30598 12.8858 7.03033C12.7716 6.75467 12.5549 6.5379 12.1213 6.10435L8.56891 2.55194C8.19475 2.17778 8.00767 1.9907 7.77588 1.87984C7.72768 1.85679 7.67828 1.83632 7.62789 1.81854C7.38561 1.73303 7.12103 1.73303 6.59188 1.73303C4.15811 1.73303 2.94123 1.73303 2.117 2.39759C1.95049 2.53184 1.79881 2.68352 1.66456 2.85003C1 3.67426 1 4.89115 1 7.32491V9.98303M7.75 2.10803V2.48303C7.75 4.60435 7.75 5.66501 8.40901 6.32402C9.06802 6.98303 10.1287 6.98303 12.25 6.98303H12.625" stroke="#D83232" stroke-width="1.5" stroke-linecap="round" stroke-linejoin="round"/>
<path d="M12.8125 12.233H10.9375C10.5233 12.233 10.1875 12.5688 10.1875 12.983V14.483M10.1875 14.483V16.733M10.1875 14.483H12.4375M1.1875 16.733V14.858M1.1875 14.858V12.233H2.5C3.22487 12.233 3.8125 12.8207 3.8125 13.5455C3.8125 14.2704 3.22487 14.858 2.5 14.858H1.1875ZM5.6875 12.233H6.8125C7.64093 12.233 8.3125 12.9046 8.3125 13.733V15.233C8.3125 16.0615 7.64093 16.733 6.8125 16.733H5.6875V12.233Z" stroke="#D83232" stroke-width="1.5" stroke-linecap="round" stroke-linejoin="round"/>
</svg>
