<svg width="16" height="17" viewBox="0 0 16 17" fill="none" xmlns="http://www.w3.org/2000/svg">
<path d="M0.875 8.5C0.875 5.14124 0.875 3.46186 1.91843 2.41843C2.96186 1.375 4.64124 1.375 8 1.375C11.3588 1.375 13.0381 1.375 14.0816 2.41843C15.125 3.46186 15.125 5.14124 15.125 8.5C15.125 11.8588 15.125 13.5381 14.0816 14.5816C13.0381 15.625 11.3588 15.625 8 15.625C4.64124 15.625 2.96186 15.625 1.91843 14.5816C0.875 13.5381 0.875 11.8588 0.875 8.5Z" stroke="#1B4D5B" stroke-width="1.5" stroke-linejoin="round"/>
<path d="M7.25 5.125L11.75 5.125M5 5.125C5 5.33211 4.83211 5.5 4.625 5.5C4.41789 5.5 4.25 5.33211 4.25 5.125C4.25 4.91789 4.41789 4.75 4.625 4.75C4.83211 4.75 5 4.91789 5 5.125Z" stroke="#1B4D5B" stroke-width="1.5" stroke-linecap="round" stroke-linejoin="round"/>
<path d="M7.25 8.5L11.75 8.5M5 8.5C5 8.70711 4.83211 8.875 4.625 8.875C4.41789 8.875 4.25 8.70711 4.25 8.5C4.25 8.29289 4.41789 8.125 4.625 8.125C4.83211 8.125 5 8.29289 5 8.5Z" stroke="#1B4D5B" stroke-width="1.5" stroke-linecap="round" stroke-linejoin="round"/>
<path d="M7.25 11.875L11.75 11.875M5 11.875C5 12.0821 4.83211 12.25 4.625 12.25C4.41789 12.25 4.25 12.0821 4.25 11.875C4.25 11.6679 4.41789 11.5 4.625 11.5C4.83211 11.5 5 11.6679 5 11.875Z" stroke="#1B4D5B" stroke-width="1.5" stroke-linecap="round" stroke-linejoin="round"/>
</svg>
