<svg width="29" height="30" viewBox="0 0 29 30" fill="none" xmlns="http://www.w3.org/2000/svg">
<circle cx="14.6243" cy="14.9134" r="13.3333" stroke="#1B4D5B" stroke-width="2"/>
<path d="M19.2285 15.4411C19.0265 16.2768 18.072 16.8673 16.1629 18.0483C14.3173 19.19 13.3946 19.7608 12.6509 19.5313C12.3435 19.4365 12.0634 19.2563 11.8374 19.0081C11.291 18.4078 11.291 17.2434 11.291 14.9147C11.291 12.586 11.291 11.4216 11.8374 10.8213C12.0634 10.5731 12.3435 10.393 12.6509 10.2981C13.3946 10.0686 14.3173 10.6395 16.1629 11.7812C18.072 12.9622 19.0265 13.5527 19.2285 14.3883C19.3119 14.7333 19.3119 15.0962 19.2285 15.4411Z" stroke="#1B4D5B" stroke-width="2" stroke-linejoin="round"/>
</svg>
