<svg width="31" height="31" viewBox="0 0 31 31" fill="none" xmlns="http://www.w3.org/2000/svg">
<path d="M0 4C0 1.79086 1.79086 0 4 0H27C29.2091 0 31 1.79086 31 4V27C31 29.2091 29.2091 31 27 31H4C1.79086 31 0 29.2091 0 27V4Z" fill="#FFEBEB"/>
<path d="M10.8675 15.5L9.70942 14.3419C8.43019 13.0627 8.43019 10.9886 9.70942 9.70942C10.9886 8.43019 13.0627 8.43019 14.3419 9.70942L21.2906 16.6581C22.5698 17.9373 22.5698 20.0114 21.2906 21.2906C20.0114 22.5698 17.9373 22.5698 16.6581 21.2906L14.0524 18.6848C13.2528 17.8853 13.2528 16.589 14.0524 15.7895C14.8519 14.99 16.1481 14.99 16.9476 15.7895L18.3953 17.2372" stroke="#C77A7C" stroke-width="1.5" stroke-linecap="round" stroke-linejoin="round"/>
</svg>
