<svg width="32" height="32" viewBox="0 0 32 32" fill="none" xmlns="http://www.w3.org/2000/svg">
<path d="M0 4C0 1.79086 1.79086 0 4 0H28C30.2091 0 32 1.79086 32 4V28C32 30.2091 30.2091 32 28 32H4C1.79086 32 0 30.2091 0 28V4Z" fill="#DFF8FF"/>
<path opacity="0.4" d="M20.5 6L20.7579 6.69703C21.0961 7.61102 21.2652 8.06802 21.5986 8.40139C21.932 8.73477 22.389 8.90387 23.303 9.24208L24 9.5L23.303 9.75792C22.389 10.0961 21.932 10.2652 21.5986 10.5986C21.2652 10.932 21.0961 11.389 20.7579 12.303L20.5 13L20.2421 12.303C19.9039 11.389 19.7348 10.932 19.4014 10.5986C19.068 10.2652 18.611 10.0961 17.697 9.75792L17 9.5L17.697 9.24208C18.611 8.90387 19.068 8.73476 19.4014 8.40139C19.7348 8.06802 19.9039 7.61102 20.2421 6.69703L20.5 6Z" fill="#3B8FA7"/>
<path opacity="0.4" d="M17.5 23V24C17.5 24.9428 17.5 25.4142 17.2071 25.7071C16.9142 26 16.4428 26 15.5 26C14.5572 26 14.0858 26 13.7929 25.7071C13.5 25.4142 13.5 24.9428 13.5 24V23H17.5Z" fill="#3B8FA7"/>
<path d="M23 13.6207C23 16.1999 21.7302 18.1852 19.7983 19.4917C19.3483 19.796 19.1233 19.9482 19.0122 20.1212C18.9012 20.2942 18.8633 20.5214 18.7876 20.9757L18.7287 21.3288C18.5957 22.127 18.5292 22.526 18.2494 22.763C17.9697 23 17.5651 23 16.7559 23H14.1444C13.3353 23 12.9307 23 12.6509 22.763C12.3712 22.526 12.3047 22.127 12.1717 21.3288L12.1128 20.9757C12.0373 20.5229 11.9996 20.2965 11.8897 20.1243C11.7798 19.9521 11.5543 19.798 11.1033 19.4897C9.1919 18.1832 8 16.1986 8 13.6207C8 9.4119 11.3579 6 15.5 6C16.0137 6 16.5153 6.05248 17 6.15244" stroke="#3B8FA7" stroke-width="1.5" stroke-linecap="round" stroke-linejoin="round"/>
<path d="M20.5 6L20.7579 6.69703C21.0961 7.61102 21.2652 8.06802 21.5986 8.40139C21.932 8.73477 22.389 8.90387 23.303 9.24208L24 9.5L23.303 9.75792C22.389 10.0961 21.932 10.2652 21.5986 10.5986C21.2652 10.932 21.0961 11.389 20.7579 12.303L20.5 13L20.2421 12.303C19.9039 11.389 19.7348 10.932 19.4014 10.5986C19.068 10.2652 18.611 10.0961 17.697 9.75792L17 9.5L17.697 9.24208C18.611 8.90387 19.068 8.73477 19.4014 8.40139C19.7348 8.06802 19.9039 7.61102 20.2421 6.69703L20.5 6Z" stroke="#3B8FA7" stroke-width="1.5" stroke-linejoin="round"/>
<path d="M17.5 23V24C17.5 24.9428 17.5 25.4142 17.2071 25.7071C16.9142 26 16.4428 26 15.5 26C14.5572 26 14.0858 26 13.7929 25.7071C13.5 25.4142 13.5 24.9428 13.5 24V23" stroke="#3B8FA7" stroke-width="1.5" stroke-linejoin="round"/>
</svg>
