<svg width="18" height="18" viewBox="0 0 18 18" fill="none" xmlns="http://www.w3.org/2000/svg">
<path d="M13.9506 0.0996094L14 0.099613L14.0494 0.0996094H14.0494C14.7143 0.0995739 15.2871 0.0995433 15.7458 0.161218C16.2375 0.227317 16.7087 0.376376 17.091 0.758623C17.4732 1.14087 17.6223 1.61213 17.6884 2.10377C17.7501 2.56252 17.75 3.13538 17.75 3.80024V13.899C17.75 14.5638 17.7501 15.1367 17.6884 15.5955C17.6223 16.0871 17.4732 16.5584 17.091 16.9406C16.7087 17.3229 16.2375 17.4719 15.7458 17.538C15.2871 17.5997 14.7142 17.5997 14.0494 17.5996H13.9506C13.2858 17.5997 12.7129 17.5997 12.2542 17.538C11.7625 17.4719 11.2913 17.3229 10.909 16.9406C10.5268 16.5584 10.3777 16.0871 10.3116 15.5955C10.2499 15.1367 10.25 14.5639 10.25 13.899V13.899V3.80024V3.80019C10.25 3.13534 10.2499 2.5625 10.3116 2.10377C10.3777 1.61213 10.5268 1.14087 10.909 0.758623C11.2913 0.376376 11.7625 0.227317 12.2542 0.161218C12.7129 0.0995433 13.2857 0.0995739 13.9506 0.0996094H13.9506Z" fill="#49ABC6"/>
<path d="M3.95063 0.0996094L4 0.099613L4.04938 0.0996094H4.04943C4.71427 0.0995739 5.28711 0.0995433 5.74585 0.161218C6.23748 0.227317 6.70875 0.376376 7.09099 0.758623C7.47324 1.14087 7.6223 1.61213 7.6884 2.10377C7.75007 2.56252 7.75004 3.13538 7.75001 3.80024V13.899C7.75004 14.5638 7.75007 15.1367 7.6884 15.5955C7.6223 16.0871 7.47324 16.5584 7.09099 16.9406C6.70875 17.3229 6.23748 17.4719 5.74585 17.538C5.2871 17.5997 4.71424 17.5997 4.04937 17.5996H3.95063C3.28577 17.5997 2.71291 17.5997 2.25416 17.538C1.76252 17.4719 1.29126 17.3229 0.909013 16.9406C0.526767 16.5584 0.377708 16.0871 0.311609 15.5955C0.249934 15.1367 0.249965 14.5639 0.25 13.899V13.899V3.80024V3.80019C0.249965 3.13534 0.249934 2.5625 0.311609 2.10377C0.377708 1.61213 0.526767 1.14087 0.909013 0.758623C1.29126 0.376376 1.76252 0.227317 2.25416 0.161218C2.71289 0.0995433 3.28573 0.0995739 3.95058 0.0996094H3.95063Z" fill="#49ABC6"/>
</svg>
