<svg width="18" height="22" viewBox="0 0 18 22" fill="none" xmlns="http://www.w3.org/2000/svg">
<path d="M17 21.0001H3.5C2.11929 21.0001 1 19.8808 1 18.5001M1 18.5001V9.68374C1 6.69913 1 5.20682 1.75662 4.15857C2.00717 3.81144 2.31183 3.50679 2.65895 3.25623C3.70721 2.49961 5.19952 2.49961 8.18413 2.49961C9.16051 2.49961 10.3496 2.55106 11.3358 2.5644C12.235 2.57656 12.6846 2.58265 13.5222 2.43464C14.3597 2.28663 14.4492 2.2526 14.6282 2.18454C15.3982 1.89176 16.1272 1.43641 17 1V10.5001C17 12.3639 17 13.2958 16.6955 14.0309C16.2895 15.011 15.5108 15.7897 14.5307 16.1957C13.7956 16.5001 12.8638 16.5001 11 16.5001H3C1.89543 16.5001 1 17.3956 1 18.5001Z" stroke="#6A6A6A" stroke-width="1.5" stroke-linecap="round" stroke-linejoin="round"/>
<path d="M15 16L15 21" stroke="#6A6A6A" stroke-width="1.5" stroke-linejoin="round"/>
<path d="M5 3L5 7" stroke="#6A6A6A" stroke-width="1.5" stroke-linecap="round" stroke-linejoin="round"/>
</svg>
