<svg width="14" height="13" viewBox="0 0 14 13" fill="none" xmlns="http://www.w3.org/2000/svg">
<path d="M9.16715 9.2293C7.95344 10.1584 7.24507 11.6002 7 12.0413V4.16634C7.17842 3.84519 7.60239 3.08203 8.28815 2.36355C8.92525 1.69606 9.24379 1.36232 9.8719 1.61396C10.5 1.8656 10.5 2.44689 10.5 3.60947V7.03274C10.5 7.64334 10.5 7.94865 10.3966 8.15798C10.2932 8.36732 9.91787 8.65465 9.16715 9.2293Z" stroke="#1B4D5B" stroke-width="1.5" stroke-linecap="round" stroke-linejoin="round"/>
<path d="M6.99935 4.05324C6.59866 3.63235 5.43704 2.63273 3.48801 2.28225C2.50062 2.1047 2.00693 2.01592 1.58647 2.35619C1.16602 2.69646 1.16602 3.24901 1.16602 4.35411V8.32565C1.16602 9.33611 1.16602 9.84133 1.43586 10.1568C1.70571 10.4722 2.29981 10.579 3.48801 10.7927C4.54721 10.9832 5.37386 11.2866 5.9722 11.5916C6.5609 11.8916 6.85527 12.0417 6.99935 12.0417C7.14343 12.0417 7.43779 11.8916 8.02649 11.5916C8.62484 11.2866 9.45149 10.9832 10.5107 10.7927C11.6989 10.579 12.293 10.4722 12.5628 10.1568C12.8327 9.84133 12.8327 9.33611 12.8327 8.32565V4.35411C12.8327 3.24901 12.8327 2.69646 12.4122 2.35619C11.9918 2.01592 11.0827 2.28225 10.4993 2.70833" stroke="#1B4D5B" stroke-width="1.5" stroke-linecap="round" stroke-linejoin="round"/>
</svg>
