<svg width="22" height="23" viewBox="0 0 22 23" fill="none" xmlns="http://www.w3.org/2000/svg">
<path d="M21 11.0667C21 16.3499 16.5222 20.6334 11 20.6334C10.3507 20.6343 9.70324 20.5742 9.06542 20.4545C8.60633 20.3682 8.37678 20.3251 8.21653 20.3496C8.05627 20.3741 7.82918 20.4948 7.37499 20.7364C6.09014 21.4197 4.59195 21.661 3.15111 21.393C3.69874 20.7194 4.07275 19.9112 4.23778 19.0448C4.33778 18.5148 4.09 18 3.71889 17.6231C2.03333 15.9115 1 13.6051 1 11.0667C1 5.78357 5.47778 1.5 11 1.5C16.5222 1.5 21 5.78357 21 11.0667Z" stroke="#1B4D5B" stroke-width="1.5" stroke-linejoin="round"/>
<path d="M9 9.34615C9 8.32655 9.89543 7.5 11 7.5C12.1046 7.5 13 8.32655 13 9.34615C13 9.71368 12.8837 10.0561 12.6831 10.3438C12.0854 11.2012 11 12.0189 11 13.0385V13.5" stroke="#1B4D5B" stroke-width="1.5" stroke-linecap="round"/>
<path d="M11 16H11.009" stroke="#1B4D5B" stroke-width="1.5" stroke-linecap="round" stroke-linejoin="round"/>
</svg>
