<svg width="16" height="18" viewBox="0 0 16 18" fill="none" xmlns="http://www.w3.org/2000/svg">
<path d="M5 9.98303L6.28093 11.858M6.28093 11.858L7.56186 13.733M6.28093 11.858L7.56186 9.98303M6.28093 11.858L5 13.733M11.4214 13.733H10.7809C10.1771 13.733 9.87518 13.733 9.68759 13.55C9.5 13.3669 9.5 13.0723 9.5 12.483V9.98303M14.5461 9.98303H13.8342C13.5498 9.98303 13.4075 9.98303 13.2953 10.0306C12.9183 10.1905 12.9184 10.5635 12.9184 10.9067V10.9343C12.9184 11.2776 12.9183 11.6506 13.2953 11.8105C13.4075 11.858 13.5498 11.858 13.8342 11.858C14.1187 11.858 14.2609 11.858 14.3731 11.9056C14.7501 12.0655 14.7501 12.4385 14.75 12.7817V12.8093C14.7501 13.1526 14.7501 13.5256 14.3731 13.6855C14.2609 13.733 14.1187 13.733 13.8342 13.733H13.0589" stroke="#419E6A" stroke-width="1.5" stroke-linecap="round" stroke-linejoin="round"/>
<path d="M10.25 16.733H7.04546C4.59955 16.733 3.3766 16.733 2.5273 16.1347C2.28397 15.9632 2.06793 15.7599 1.88578 15.5309C1.25 14.7315 1.25 13.5805 1.25 11.2785V9.3694C1.25 7.14702 1.25 6.03583 1.6017 5.14835C2.16711 3.7216 3.36285 2.5962 4.87877 2.06405C5.82172 1.73303 7.00236 1.73303 9.36364 1.73303C10.7129 1.73303 11.3876 1.73303 11.9264 1.92218C12.7927 2.22627 13.4759 2.86935 13.799 3.68464C14 4.19177 14 4.82674 14 6.09667V7.73303" stroke="#419E6A" stroke-width="1.5" stroke-linecap="round" stroke-linejoin="round"/>
<path d="M1.25 9.23303C1.25 7.85232 2.36929 6.73303 3.75 6.73303C4.24934 6.73303 4.83803 6.82053 5.32352 6.69044C5.75489 6.57486 6.09182 6.23792 6.20741 5.80656C6.3375 5.32106 6.25 4.73237 6.25 4.23303C6.25 2.85232 7.36929 1.73303 8.75 1.73303" stroke="#419E6A" stroke-width="1.5" stroke-linecap="round" stroke-linejoin="round"/>
</svg>
