<svg width="18" height="18" viewBox="0 0 18 18" fill="none" xmlns="http://www.w3.org/2000/svg">
<path d="M4.56703 11.2495C4.28323 10.6116 4.125 9.90184 4.125 9.15394C4.125 6.37626 6.30761 4.12451 9 4.12451C11.6924 4.12451 13.875 6.37626 13.875 9.15394C13.875 9.90184 13.7168 10.6116 13.433 11.2495" stroke="#FAAA44" stroke-width="1.5" stroke-linecap="round"/>
<path d="M9 1.49951V2.24951" stroke="#FAAA44" stroke-width="1.5" stroke-linecap="round" stroke-linejoin="round"/>
<path d="M16.5 8.99951H15.75" stroke="#FAAA44" stroke-width="1.5" stroke-linecap="round" stroke-linejoin="round"/>
<path d="M2.25 8.99951H1.5" stroke="#FAAA44" stroke-width="1.5" stroke-linecap="round" stroke-linejoin="round"/>
<path d="M14.3038 3.69629L13.7734 4.22662" stroke="#FAAA44" stroke-width="1.5" stroke-linecap="round" stroke-linejoin="round"/>
<path d="M4.2276 4.22711L3.69727 3.69678" stroke="#FAAA44" stroke-width="1.5" stroke-linecap="round" stroke-linejoin="round"/>
<path d="M10.8888 14.4796C11.6008 14.2493 11.9121 13.6229 12.018 12.9694C12.0628 12.693 11.8325 12.4619 11.5525 12.4619L6.49247 12.4621C6.20287 12.4621 5.96737 12.7085 6.01088 12.9948C6.10646 13.6237 6.33993 14.0936 7.09106 14.4796M10.8888 14.4796C10.8888 14.4796 7.22326 14.4796 7.09106 14.4796M10.8888 14.4796C10.7976 15.9383 10.3763 16.516 9.00608 16.4998C7.5404 16.5269 7.20325 15.8128 7.09106 14.4796" stroke="#FAAA44" stroke-width="1.5" stroke-linecap="round" stroke-linejoin="round"/>
</svg>
