<svg width="54" height="61" viewBox="0 0 54 61" fill="none" xmlns="http://www.w3.org/2000/svg">
<path opacity="0.4" fill-rule="evenodd" clip-rule="evenodd" d="M3.31281 12.6463C0.75 15.2091 0.75 19.3339 0.75 27.5835L0.75 42.1668C0.75 50.4164 0.75 54.5412 3.31281 57.104C5.87563 59.6668 10.0004 59.6668 18.25 59.6668H24.0833C32.3329 59.6668 36.4577 59.6668 39.0205 57.104C41.5833 54.5412 41.5833 50.4164 41.5833 42.1668V27.5835C41.5833 19.3339 41.5833 15.2091 39.0205 12.6463C36.4577 10.0835 32.3329 10.0835 24.0833 10.0835L18.25 10.0835C10.0004 10.0835 5.87563 10.0835 3.31281 12.6463ZM16.58 28.4725L15.4627 29.8061C13.432 32.2299 12.4167 33.4418 12.4167 34.8752C12.4167 36.3085 13.432 37.5204 15.4627 39.9442L16.58 41.2778C18.7056 43.8149 19.7684 45.0835 21.1667 45.0835C22.5649 45.0835 23.6277 43.8149 25.7534 41.2778L26.8706 39.9442C28.9013 37.5204 29.9167 36.3085 29.9167 34.8752C29.9167 33.4418 28.9013 32.2299 26.8706 29.8061L25.7534 28.4725C23.6277 25.9354 22.5649 24.6668 21.1667 24.6668C19.7684 24.6668 18.7056 25.9354 16.58 28.4725Z" fill="#2D7083"/>
<path d="M41.3621 50.9168C44.5583 49.1301 45.6454 45.2018 47.8195 37.3453L50.8943 26.2344C53.0684 18.3779 54.1555 14.4496 52.3102 11.3549C50.4649 8.26015 46.4079 7.20757 38.2938 5.10241L32.5562 3.61384C24.4421 1.50868 20.3851 0.456103 17.1889 2.24283C14.9134 3.51493 13.7069 5.87258 12.416 9.9606" stroke="#2D7083" stroke-width="1.5"/>
<path d="M0.75 27.5835C0.75 19.3339 0.75 15.2091 3.31282 12.6463C5.87563 10.0835 10.0004 10.0835 18.25 10.0835L24.0833 10.0835C32.3329 10.0835 36.4577 10.0835 39.0205 12.6463C41.5833 15.2091 41.5833 19.3339 41.5833 27.5835V42.1668C41.5833 50.4164 41.5833 54.5412 39.0205 57.104C36.4577 59.6668 32.3329 59.6668 24.0833 59.6668H18.25C10.0004 59.6668 5.87563 59.6668 3.31282 57.104C0.75 54.5412 0.75 50.4164 0.75 42.1668L0.75 27.5835Z" stroke="#2D7083" stroke-width="1.5"/>
<path d="M15.462 29.8063L16.5793 28.4727C18.705 25.9356 19.7678 24.667 21.166 24.667C22.5642 24.667 23.6271 25.9356 25.7527 28.4727L26.87 29.8062C28.9007 32.23 29.916 33.4419 29.916 34.8753C29.916 36.3087 28.9007 37.5206 26.87 39.9444L25.7527 41.278C23.6271 43.8151 22.5642 45.0837 21.166 45.0837C19.7678 45.0837 18.705 43.8151 16.5793 41.278L15.4621 39.9444C13.4314 37.5206 12.416 36.3087 12.416 34.8753C12.416 33.4419 13.4314 32.23 15.462 29.8063Z" stroke="#2D7083" stroke-width="1.5"/>
</svg>
