<svg width="36" height="37" viewBox="0 0 36 37" fill="none" xmlns="http://www.w3.org/2000/svg">
<g filter="url(#filter0_di_722_31145)">
<path d="M4 4.5C4 2.29086 5.79086 0.5 8 0.5H28C30.2091 0.5 32 2.29086 32 4.5V24.5C32 26.7091 30.2091 28.5 28 28.5H8C5.79086 28.5 4 26.7091 4 24.5V4.5Z" fill="white"/>
<path d="M4.5 4.5C4.5 2.567 6.067 1 8 1H28C29.933 1 31.5 2.567 31.5 4.5V24.5C31.5 26.433 29.933 28 28 28H8C6.067 28 4.5 26.433 4.5 24.5V4.5Z" stroke="#A5E1BF"/>
<path d="M11 17C11 17 12.5 17 14.5 20.5C14.5 20.5 20.0588 11.3333 25 9.5" stroke="#419E6A" stroke-width="1.5" stroke-linecap="round" stroke-linejoin="round"/>
</g>
<defs>
<filter id="filter0_di_722_31145" x="0" y="0.5" width="36" height="36" filterUnits="userSpaceOnUse" color-interpolation-filters="sRGB">
<feFlood flood-opacity="0" result="BackgroundImageFix"/>
<feColorMatrix in="SourceAlpha" type="matrix" values="0 0 0 0 0 0 0 0 0 0 0 0 0 0 0 0 0 0 127 0" result="hardAlpha"/>
<feOffset dy="4"/>
<feGaussianBlur stdDeviation="2"/>
<feComposite in2="hardAlpha" operator="out"/>
<feColorMatrix type="matrix" values="0 0 0 0 0 0 0 0 0 0 0 0 0 0 0 0 0 0 0.25 0"/>
<feBlend mode="normal" in2="BackgroundImageFix" result="effect1_dropShadow_722_31145"/>
<feBlend mode="normal" in="SourceGraphic" in2="effect1_dropShadow_722_31145" result="shape"/>
<feColorMatrix in="SourceAlpha" type="matrix" values="0 0 0 0 0 0 0 0 0 0 0 0 0 0 0 0 0 0 127 0" result="hardAlpha"/>
<feOffset dx="6" dy="4"/>
<feGaussianBlur stdDeviation="2"/>
<feComposite in2="hardAlpha" operator="arithmetic" k2="-1" k3="1"/>
<feColorMatrix type="matrix" values="0 0 0 0 0 0 0 0 0 0 0 0 0 0 0 0 0 0 0.07 0"/>
<feBlend mode="normal" in2="shape" result="effect2_innerShadow_722_31145"/>
</filter>
</defs>
</svg>
