<svg width="20" height="22" viewBox="0 0 20 22" fill="none" xmlns="http://www.w3.org/2000/svg">
<path d="M1.5 9.5H15.9118C17.3676 9.5 18.0955 9.5 18.5477 9.93934C19 10.3787 19 11.0858 19 12.5V14C19 17.2998 19 18.9497 17.9447 19.9749C16.8894 21 15.191 21 11.7941 21H8.70588C5.309 21 3.61055 21 2.55528 19.9749C1.5 18.9497 1.5 17.2998 1.5 14V9.5Z" stroke="#6A6A6A" stroke-width="1.5"/>
<path d="M1.49827 9.5C1.14118 8.14207 0.962636 7.46311 1.00654 6.86611C1.08518 5.79682 1.63742 4.82221 2.50691 4.21816C2.99236 3.88092 3.6587 3.69899 4.99138 3.33514L12.7321 1.22172C13.0767 1.12763 13.2491 1.08058 13.3977 1.05386C15.0504 0.756937 16.6737 1.71192 17.2477 3.31874C17.2993 3.4633 17.3455 3.63888 17.4378 3.99006C17.4642 4.09039 17.4774 4.14056 17.4849 4.18385C17.5682 4.66498 17.3004 5.13757 16.8498 5.30467C16.8093 5.3197 16.7601 5.33314 16.6616 5.36003L1.49827 9.5Z" stroke="#6A6A6A" stroke-width="1.5"/>
<path d="M5 9L7 3" stroke="#6A6A6A" stroke-width="1.5"/>
<path d="M12 7L14 1" stroke="#6A6A6A" stroke-width="1.5"/>
<path d="M6 17H9" stroke="#6A6A6A" stroke-width="1.5" stroke-linecap="round"/>
</svg>
