<svg width="20" height="23" viewBox="0 0 20 23" fill="none" xmlns="http://www.w3.org/2000/svg">
<path opacity="0.4" d="M17.5 5.13635L16.8803 15.1614C16.7219 17.7228 16.6428 19.0035 16.0008 19.9242C15.6833 20.3794 15.2747 20.7636 14.8007 21.0524C13.8421 21.6364 12.559 21.6364 9.99274 21.6364C7.42312 21.6364 6.1383 21.6364 5.17905 21.0513C4.7048 20.762 4.296 20.3772 3.97868 19.9212C3.33688 18.9989 3.25945 17.7165 3.10461 15.1515L2.5 5.13635H17.5Z" fill="#1B4D5B"/>
<path d="M17.5 5.13635L16.8803 15.1614C16.7219 17.7228 16.6428 19.0035 16.0008 19.9242C15.6833 20.3794 15.2747 20.7636 14.8007 21.0524C13.8421 21.6364 12.559 21.6364 9.99274 21.6364C7.42312 21.6364 6.1383 21.6364 5.17905 21.0513C4.7048 20.762 4.296 20.3772 3.97868 19.9212C3.33688 18.9989 3.25945 17.7165 3.10461 15.1515L2.5 5.13635" stroke="#1B4D5B" stroke-width="1.5" stroke-linecap="round"/>
<path d="M19 5.13635H1" stroke="#1B4D5B" stroke-width="1.5" stroke-linecap="round"/>
<path d="M14.0575 5.13635L13.3748 3.72808C12.9213 2.79261 12.6946 2.32487 12.3035 2.03316C12.2167 1.96845 12.1249 1.91089 12.0288 1.86105C11.5957 1.63635 11.0759 1.63635 10.0363 1.63635C8.97059 1.63635 8.43775 1.63635 7.99745 1.87047C7.89986 1.92236 7.80675 1.98225 7.71906 2.04952C7.3234 2.35305 7.10239 2.83791 6.66037 3.80761L6.05469 5.13635" stroke="#1B4D5B" stroke-width="1.5" stroke-linecap="round"/>
<path d="M7.5 16.1364L7.5 10.1364" stroke="#1B4D5B" stroke-width="1.5" stroke-linecap="round"/>
<path d="M12.5 16.1364L12.5 10.1364" stroke="#1B4D5B" stroke-width="1.5" stroke-linecap="round"/>
</svg>
