<svg width="18" height="19" viewBox="0 0 18 19" fill="none" xmlns="http://www.w3.org/2000/svg">
<path d="M14 1.16663V2.83329M4 1.16663V2.83329" stroke="#002987" stroke-width="1.5" stroke-linecap="round" stroke-linejoin="round"/>
<path d="M7.33333 13.6666L7.33332 10.6226C7.33332 10.4628 7.21938 10.3333 7.07882 10.3333H6.5M10.358 13.6666L11.4868 10.6242C11.5396 10.482 11.4274 10.3333 11.2672 10.3333H9.83333" stroke="#002987" stroke-width="1.5" stroke-linecap="round"/>
<path d="M1.08203 9.7027C1.08203 6.07161 1.08203 4.25607 2.12546 3.12803C3.1689 2 4.84827 2 8.20703 2H9.79036C13.1491 2 14.8285 2 15.8719 3.12803C16.9154 4.25607 16.9154 6.07161 16.9154 9.7027V10.1306C16.9154 13.7617 16.9154 15.5773 15.8719 16.7053C14.8285 17.8333 13.1491 17.8333 9.79036 17.8333H8.20703C4.84827 17.8333 3.1689 17.8333 2.12546 16.7053C1.08203 15.5773 1.08203 13.7617 1.08203 10.1306V9.7027Z" stroke="#002987" stroke-width="1.5" stroke-linecap="round" stroke-linejoin="round"/>
<path d="M4 6.16663H14" stroke="#002987" stroke-width="1.5" stroke-linecap="round" stroke-linejoin="round"/>
</svg>
