<svg width="36" height="36" viewBox="0 0 36 36" fill="none" xmlns="http://www.w3.org/2000/svg">
<g filter="url(#filter0_di_722_26395)">
<path d="M4 4C4 1.79086 5.79086 0 8 0H28C30.2091 0 32 1.79086 32 4V24C32 26.2091 30.2091 28 28 28H8C5.79086 28 4 26.2091 4 24V4Z" fill="white"/>
<path d="M4.5 4C4.5 2.067 6.067 0.5 8 0.5H28C29.933 0.5 31.5 2.067 31.5 4V24C31.5 25.933 29.933 27.5 28 27.5H8C6.067 27.5 4.5 25.933 4.5 24V4Z" stroke="#FC9595"/>
<circle cx="18" cy="14" r="7.5" stroke="#D83232" stroke-width="1.5" stroke-linejoin="round"/>
</g>
<defs>
<filter id="filter0_di_722_26395" x="0" y="0" width="36" height="36" filterUnits="userSpaceOnUse" color-interpolation-filters="sRGB">
<feFlood flood-opacity="0" result="BackgroundImageFix"/>
<feColorMatrix in="SourceAlpha" type="matrix" values="0 0 0 0 0 0 0 0 0 0 0 0 0 0 0 0 0 0 127 0" result="hardAlpha"/>
<feOffset dy="4"/>
<feGaussianBlur stdDeviation="2"/>
<feComposite in2="hardAlpha" operator="out"/>
<feColorMatrix type="matrix" values="0 0 0 0 0 0 0 0 0 0 0 0 0 0 0 0 0 0 0.25 0"/>
<feBlend mode="normal" in2="BackgroundImageFix" result="effect1_dropShadow_722_26395"/>
<feBlend mode="normal" in="SourceGraphic" in2="effect1_dropShadow_722_26395" result="shape"/>
<feColorMatrix in="SourceAlpha" type="matrix" values="0 0 0 0 0 0 0 0 0 0 0 0 0 0 0 0 0 0 127 0" result="hardAlpha"/>
<feOffset dx="4" dy="4"/>
<feGaussianBlur stdDeviation="7"/>
<feComposite in2="hardAlpha" operator="arithmetic" k2="-1" k3="1"/>
<feColorMatrix type="matrix" values="0 0 0 0 0 0 0 0 0 0 0 0 0 0 0 0 0 0 0.1 0"/>
<feBlend mode="normal" in2="shape" result="effect2_innerShadow_722_26395"/>
</filter>
</defs>
</svg>
