<svg width="22" height="23" viewBox="0 0 22 23" fill="none" xmlns="http://www.w3.org/2000/svg">
<path d="M11 21.5C16.5228 21.5 21 17.0228 21 11.5C21 5.97715 16.5228 1.5 11 1.5C5.47715 1.5 1 5.97715 1 11.5C1 17.0228 5.47715 21.5 11 21.5Z" stroke="#724B00" stroke-width="1.5"/>
<path d="M11.0078 10.0082C10.1794 10.0082 9.50781 10.6798 9.50781 11.5082C9.50781 12.3366 10.1794 13.0082 11.0078 13.0082C11.8362 13.0082 12.5078 12.3366 12.5078 11.5082C12.5078 10.6798 11.8362 10.0082 11.0078 10.0082ZM11.0078 10.0082V6.49902M14.0147 14.5198L12.0661 12.5712" stroke="#724B00" stroke-width="1.5" stroke-linecap="round" stroke-linejoin="round"/>
</svg>
