<svg width="24" height="28" viewBox="0 0 24 28" fill="none" xmlns="http://www.w3.org/2000/svg">
<path d="M5.22197 18.352C3.45351 19.405 -1.18329 21.5551 1.64083 24.2457C3.02039 25.56 4.55686 26.5 6.48859 26.5H17.5114C19.4431 26.5 20.9796 25.56 22.3592 24.2457C25.1833 21.5551 20.5465 19.405 18.778 18.352C14.631 15.8827 9.36898 15.8827 5.22197 18.352Z" stroke="#1B4D5B" stroke-width="1.5" stroke-linecap="round" stroke-linejoin="round"/>
<path d="M17.625 7.125C17.625 10.2316 15.1066 12.75 12 12.75C8.8934 12.75 6.375 10.2316 6.375 7.125C6.375 4.0184 8.8934 1.5 12 1.5C15.1066 1.5 17.625 4.0184 17.625 7.125Z" stroke="#1B4D5B" stroke-width="1.5"/>
</svg>
