<svg width="18" height="16" viewBox="0 0 18 16" fill="none" xmlns="http://www.w3.org/2000/svg">
<path d="M8.98907 10.7893L11.4201 13.5532C12.3208 14.5772 12.7711 15.0893 13.2425 14.9646C13.7139 14.84 13.8756 14.1661 14.1989 12.8184L15.9922 5.34246C16.4901 3.26678 16.739 2.22893 16.1856 1.71703C15.6322 1.20513 14.673 1.58597 12.7546 2.34764L3.85407 5.8814C2.31969 6.49059 1.55251 6.79518 1.5038 7.31866C1.49882 7.37221 1.49873 7.42613 1.50355 7.47969C1.55065 8.00332 2.31691 8.31047 3.84941 8.92477C4.54379 9.20311 4.89097 9.34228 5.1399 9.60881C5.16789 9.63877 5.1948 9.6698 5.22058 9.70184C5.44994 9.9868 5.54781 10.3608 5.74356 11.1089L6.1099 12.5088C6.30038 13.2367 6.39562 13.6006 6.64506 13.6502C6.8945 13.6999 7.11168 13.3981 7.54605 12.7945L8.98907 10.7893ZM8.98907 10.7893L8.75072 10.5408C8.47945 10.2581 8.34382 10.1168 8.34382 9.94113C8.34382 9.76548 8.47945 9.62412 8.75072 9.34141L11.4304 6.5486" stroke="#976400" stroke-width="1.5" stroke-linecap="round" stroke-linejoin="round"/>
</svg>
