<svg width="32" height="32" viewBox="0 0 32 32" fill="none" xmlns="http://www.w3.org/2000/svg">
<path d="M0 4C0 1.79086 1.79086 0 4 0H28C30.2091 0 32 1.79086 32 4V28C32 30.2091 30.2091 32 28 32H4C1.79086 32 0 30.2091 0 28V4Z" fill="#DFF8FF"/>
<path opacity="0.4" d="M6 9.29734C6 8.19897 6 7.64979 6.18738 7.22389C6.3861 6.77223 6.72861 6.40921 7.15476 6.1986C7.55661 6 8.07478 6 9.11111 6H10C11.8856 6 12.8284 6 13.4142 6.62085C14 7.2417 14 8.24095 14 10.2394V12.4985C14 13.3703 14 13.8061 13.7359 13.9559C13.4719 14.1057 13.1297 13.8639 12.4453 13.3804L12.341 13.3067C11.8409 12.9533 11.5908 12.7766 11.3074 12.6856C11.0239 12.5947 10.7234 12.5947 10.1222 12.5947H9.11111C8.07478 12.5947 7.55661 12.5947 7.15476 12.3961C6.72861 12.1855 6.3861 11.8225 6.18738 11.3708C6 10.9449 6 10.3957 6 9.29734Z" fill="#3B8FA7"/>
<path opacity="0.4" d="M26 21.2973C26 20.199 26 19.6498 25.8126 19.2239C25.6139 18.7722 25.2714 18.4092 24.8452 18.1986C24.4434 18 23.9252 18 22.8889 18H22C20.1144 18 19.1716 18 18.5858 18.6209C18 19.2417 18 20.2409 18 22.2394V24.4985C18 25.3703 18 25.8061 18.2641 25.9559C18.5281 26.1057 18.8703 25.8639 19.5547 25.3804L19.659 25.3067C20.1591 24.9533 20.4092 24.7766 20.6926 24.6856C20.9761 24.5947 21.2766 24.5947 21.8778 24.5947H22.8889C23.9252 24.5947 24.4434 24.5947 24.8452 24.3961C25.2714 24.1855 25.6139 23.8225 25.8126 23.3708C26 22.9449 26 22.3957 26 21.2973Z" fill="#3B8FA7"/>
<path d="M6 16C6 17.0519 6.18046 18.0617 6.51212 19M17.0137 13H25.5015M15 19H6.51212M25.5015 13C24.266 9.50442 20.9323 7 17.0137 7C18.6146 7 19.9226 10.762 20.0091 15.5M25.5015 13C25.7803 13.7887 25.9522 14.6278 26 15.5M6.51212 19C7.74763 22.4956 11.0813 25 15 25C13.4558 25 12.1841 21.5 12.0183 17" stroke="#3B8FA7" stroke-width="1.5" stroke-linecap="round" stroke-linejoin="round"/>
<path d="M6 9.29734C6 8.19897 6 7.64979 6.18738 7.22389C6.3861 6.77223 6.72861 6.40921 7.15476 6.1986C7.55661 6 8.07478 6 9.11111 6H10C11.8856 6 12.8284 6 13.4142 6.62085C14 7.2417 14 8.24095 14 10.2394V12.4985C14 13.3703 14 13.8061 13.7359 13.9559C13.4719 14.1057 13.1297 13.8639 12.4453 13.3804L12.341 13.3067C11.8409 12.9533 11.5908 12.7766 11.3074 12.6856C11.0239 12.5947 10.7234 12.5947 10.1222 12.5947H9.11111C8.07478 12.5947 7.55661 12.5947 7.15476 12.3961C6.72861 12.1855 6.3861 11.8225 6.18738 11.3708C6 10.9449 6 10.3957 6 9.29734Z" stroke="#3B8FA7" stroke-width="1.5"/>
<path d="M26 21.2973C26 20.199 26 19.6498 25.8126 19.2239C25.6139 18.7722 25.2714 18.4092 24.8452 18.1986C24.4434 18 23.9252 18 22.8889 18H22C20.1144 18 19.1716 18 18.5858 18.6209C18 19.2417 18 20.2409 18 22.2394V24.4985C18 25.3703 18 25.8061 18.2641 25.9559C18.5281 26.1057 18.8703 25.8639 19.5547 25.3804L19.659 25.3067C20.1591 24.9533 20.4092 24.7766 20.6926 24.6856C20.9761 24.5947 21.2766 24.5947 21.8778 24.5947H22.8889C23.9252 24.5947 24.4434 24.5947 24.8452 24.3961C25.2714 24.1855 25.6139 23.8225 25.8126 23.3708C26 22.9449 26 22.3957 26 21.2973Z" stroke="#3B8FA7" stroke-width="1.5"/>
</svg>
