<svg width="18" height="17" viewBox="0 0 18 17" fill="none" xmlns="http://www.w3.org/2000/svg">
<path d="M10.5553 2.41409C11.1142 1.80856 11.3936 1.5058 11.6906 1.32919C12.4071 0.903069 13.2893 0.889818 14.0178 1.29424C14.3197 1.46185 14.6077 1.75609 15.1838 2.34457C15.7598 2.93305 16.0479 3.22729 16.212 3.53569C16.6079 4.27984 16.5949 5.18109 16.1777 5.91303C16.0049 6.21637 15.7085 6.50183 15.1157 7.07276L8.06297 13.8657C6.93966 14.9477 6.378 15.4886 5.67605 15.7628C4.97409 16.037 4.2024 16.0168 2.65902 15.9764L2.44903 15.9709C1.97918 15.9587 1.74425 15.9525 1.60769 15.7975C1.47113 15.6426 1.48977 15.4032 1.52706 14.9246L1.54731 14.6647C1.65226 13.3177 1.70473 12.6441 1.96778 12.0387C2.23083 11.4332 2.68458 10.9416 3.59207 9.95838L10.5553 2.41409Z" stroke="#1B4D5B" stroke-width="1.5" stroke-linejoin="round"/>
<path d="M9.75 2.5L15 7.75" stroke="#1B4D5B" stroke-width="1.5" stroke-linejoin="round"/>
<path d="M10.5 16L16.5 16" stroke="#1B4D5B" stroke-width="1.5" stroke-linecap="round" stroke-linejoin="round"/>
</svg>
