<svg width="18" height="17" viewBox="0 0 18 17" fill="none" xmlns="http://www.w3.org/2000/svg">
<path d="M12.75 8.73303C12.75 10.8041 11.071 12.483 9 12.483C6.92893 12.483 5.25 10.8041 5.25 8.73303C5.25 6.66197 6.92893 4.98303 9 4.98303" stroke="#FAAA44" stroke-width="1.5" stroke-linecap="round"/>
<path d="M10.5 1.38306C10.0153 1.28468 9.51367 1.23303 9 1.23303C4.85786 1.23303 1.5 4.59089 1.5 8.73303C1.5 12.8751 4.85786 16.233 9 16.233C13.1421 16.233 16.5 12.8751 16.5 8.73303C16.5 8.21936 16.4483 7.71768 16.35 7.23303" stroke="#FAAA44" stroke-width="1.5" stroke-linecap="round"/>
<path d="M9.02344 8.70495L12.4381 5.29026M14.806 2.99153L14.3912 1.50117C14.3147 1.25565 14.0193 1.1578 13.8202 1.32053C12.7431 2.2007 11.5698 3.38625 12.528 5.25621C14.4586 6.15647 15.5607 4.94244 16.4057 3.92204C16.5739 3.71902 16.4725 3.41382 16.2193 3.3406L14.806 2.99153Z" stroke="#FAAA44" stroke-width="1.5" stroke-linecap="round" stroke-linejoin="round"/>
</svg>
