<svg width="22" height="20" viewBox="0 0 22 20" fill="none" xmlns="http://www.w3.org/2000/svg">
<path d="M11 3.7785L11 17.7785" stroke="#141B34" stroke-width="1.5" stroke-linecap="round"/>
<path d="M4.98056 1.06394C8.32175 1.7001 10.3131 3.03082 11 3.79479C11.6869 3.03082 13.6782 1.7001 17.0194 1.06394C18.7121 0.741657 19.5584 0.580516 20.2792 1.19815C21 1.81578 21 2.81873 21 4.82462V12.0335C21 13.8676 21 14.7846 20.5374 15.3572C20.0748 15.9297 19.0564 16.1236 17.0194 16.5115C15.2037 16.8572 13.7866 17.408 12.7608 17.9616C11.7516 18.5062 11.247 18.7785 11 18.7785C10.753 18.7785 10.2484 18.5062 9.23918 17.9616C8.21344 17.408 6.79633 16.8572 4.98056 16.5115C2.94365 16.1236 1.9252 15.9297 1.4626 15.3572C1 14.7846 1 13.8676 1 12.0335V4.82462C1 2.81873 1 1.81578 1.72078 1.19815C2.44157 0.580516 3.2879 0.741657 4.98056 1.06394Z" stroke="#141B34" stroke-width="1.5" stroke-linecap="round" stroke-linejoin="round"/>
</svg>
