<svg width="22" height="21" viewBox="0 0 22 21" fill="none" xmlns="http://www.w3.org/2000/svg">
<path d="M4.32171 8.18293C6.73539 3.91199 7.94222 1.77651 9.59826 1.22681C10.5093 0.924397 11.4907 0.924397 12.4017 1.22681C14.0578 1.77651 15.2646 3.91199 17.6783 8.18293C20.092 12.4539 21.2988 14.5893 20.9368 16.3293C20.7376 17.2866 20.2469 18.1549 19.535 18.8097C18.241 20 15.8274 20 11 20C6.17265 20 3.75897 20 2.46496 18.8097C1.75308 18.1549 1.26239 17.2866 1.06322 16.3293C0.701194 14.5893 1.90803 12.4539 4.32171 8.18293Z" stroke="#D83232" stroke-width="1.5"/>
<path d="M11.2422 15.5V11.5C11.2422 11.0286 11.2422 10.7929 11.0957 10.6464C10.9493 10.5 10.7136 10.5 10.2422 10.5" stroke="#D83232" stroke-width="1.5" stroke-linecap="round" stroke-linejoin="round"/>
<path d="M10.992 7.5H11.001" stroke="#D83232" stroke-width="2" stroke-linecap="round" stroke-linejoin="round"/>
</svg>
