<svg width="24" height="25" viewBox="0 0 24 25" fill="none" xmlns="http://www.w3.org/2000/svg">
<path d="M17.1481 22.0455C20.037 22.0455 21 19.723 21 16.858C20.037 17.8951 17.3671 20.0649 16.1852 15.8204C14.7407 10.633 10.5 11.5454 8 14.0455C11.8519 14.0455 12.3827 14.9428 13.2963 17.8955C14.2593 21.0079 15.7037 22.0455 17.1481 22.0455Z" stroke="#1B4D5B" stroke-width="1.5" stroke-linejoin="round"/>
<path d="M6.5154 11.0454C6.5052 10.8805 6.5 10.7138 6.5 10.5454C6.5 7.2317 8.51472 4.54541 11 4.54541C13.4853 4.54541 15.5 7.2317 15.5 10.5454C15.5 11.4376 15.262 12.2844 15 13.0454" stroke="#1B4D5B" stroke-width="1.5" stroke-linecap="round"/>
<path d="M13.2413 18.7073C12.5301 18.9274 11.778 19.0454 11 19.0454C6.58172 19.0454 3 15.2398 3 10.5454C3 5.85099 6.58172 2.04541 11 2.04541C15.4183 2.04541 19 5.85099 19 10.5454C19 11.7931 18.747 12.978 18.2925 14.0454" stroke="#1B4D5B" stroke-width="1.5" stroke-linecap="round" stroke-linejoin="round"/>
</svg>
