<svg width="21" height="23" viewBox="0 0 21 23" fill="none" xmlns="http://www.w3.org/2000/svg">
<path d="M18 5.02295L17.3803 15.048C17.2219 17.6094 17.1428 18.8901 16.5008 19.8108C16.1833 20.266 15.7747 20.6502 15.3007 20.939C14.3421 21.5229 13.059 21.5229 10.4927 21.5229C7.92312 21.5229 6.6383 21.5229 5.67905 20.9379C5.2048 20.6486 4.796 20.2638 4.47868 19.8078C3.83688 18.8855 3.75945 17.6031 3.60461 15.0381L3 5.02295" stroke="#D83232" stroke-width="1.5" stroke-linecap="round"/>
<path d="M1.5 5.02295H19.5M14.5557 5.02295L13.8731 3.61468C13.4196 2.67921 13.1928 2.21147 12.8017 1.91976C12.715 1.85505 12.6231 1.79749 12.527 1.74765C12.0939 1.52295 11.5741 1.52295 10.5345 1.52295C9.46883 1.52295 8.93598 1.52295 8.49568 1.75707C8.3981 1.80896 8.30498 1.86884 8.21729 1.93612C7.82164 2.23965 7.60063 2.7245 7.15861 3.69421L6.55292 5.02295" stroke="#D83232" stroke-width="1.5" stroke-linecap="round"/>
</svg>
