<svg width="41" height="41" viewBox="0 0 41 41" fill="none" xmlns="http://www.w3.org/2000/svg">
<path d="M6.5 1.02588H34.5C37.5358 1.02588 39.9971 3.48714 39.9971 6.52295V34.5229C39.9971 37.5588 37.5358 40.02 34.5 40.02H6.5C3.46419 40.02 1.00293 37.5588 1.00293 34.5229V6.52295C1.00293 3.48714 3.46419 1.02588 6.5 1.02588Z" stroke="#1B4D5B" stroke-width="1.00635"/>
<path d="M22.5737 12.4084C23.3189 11.601 23.6915 11.1973 24.0874 10.9619C25.0427 10.3937 26.2191 10.376 27.1904 10.9153C27.5929 11.1387 27.9769 11.5311 28.745 12.3157C29.5131 13.1004 29.8972 13.4927 30.1159 13.9039C30.6438 14.8961 30.6265 16.0977 30.0703 17.0737C29.8398 17.4781 29.4446 17.8587 28.6543 18.62L19.2506 27.6772C17.7529 29.1198 17.004 29.8411 16.0681 30.2067C15.1321 30.5722 14.1032 30.5453 12.0454 30.4915L11.7654 30.4842C11.1389 30.4678 10.8257 30.4596 10.6436 30.253C10.4615 30.0464 10.4864 29.7273 10.5361 29.0891L10.5631 28.7426C10.703 26.9465 10.773 26.0484 11.1237 25.2412C11.4744 24.4339 12.0794 23.7784 13.2894 22.4674L22.5737 12.4084Z" stroke="#1B4D5B" stroke-width="1.5" stroke-linejoin="round"/>
<path d="M21.5 12.5229L28.5 19.5229" stroke="#1B4D5B" stroke-width="1.5" stroke-linejoin="round"/>
<path d="M22.5 30.5229L30.5 30.5229" stroke="#1B4D5B" stroke-width="1.5" stroke-linecap="round" stroke-linejoin="round"/>
</svg>
