<svg width="68" height="64" viewBox="0 0 68 64" fill="none" xmlns="http://www.w3.org/2000/svg">
<path opacity="0.4" d="M14.4368 8.55289C25.2957 10.5055 31.7676 16.0748 34 18.4198V62.9268C36.6 55.1268 48.0833 45.5934 53.5 41.8018V10.9268C56.75 8.55289 61.8149 7.06905 64.1575 8.96483C66.5 10.8606 66.5 13.9391 66.5 20.0961V42.2232C66.5 47.8529 66.5 50.6678 64.9966 52.4252C63.4931 54.1826 60.1831 54.7778 53.5632 55.9682H53.5632C47.6619 57.0294 43.0563 58.7202 39.7227 60.4192C36.4428 62.0909 34.8027 62.9268 34 62.9268C33.1973 62.9268 31.5572 62.0909 28.2773 60.4192C24.9437 58.7202 20.3381 57.0294 14.4368 55.9682C7.81686 54.7778 4.50689 54.1826 3.00344 52.4252C1.5 50.6678 1.5 47.8529 1.5 42.2232V20.0961C1.5 13.9391 1.5 10.8606 3.84255 8.96483C6.18509 7.06905 8.93567 7.56366 14.4368 8.55289Z" fill="#49ABC6"/>
<path d="M51.904 43.9573C41.5314 47.8968 35.7193 59.832 34 62.9268V19.0518C35.6526 16.0771 41.0866 6.29594 50.7173 2.16792C51.9046 1.65902 52.4982 1.40457 52.9991 1.73485C53.5 2.06513 53.5 2.75383 53.5 4.13124V41.7457C53.5 42.5349 53.5 42.9295 53.3029 43.2151C53.1058 43.5008 52.7052 43.653 51.904 43.9573Z" fill="#49ABC6" stroke="#49ABC6" stroke-width="1.67143" stroke-linecap="round" stroke-linejoin="round"/>
<path d="M34 18.4198C31.7676 16.0748 25.2957 10.5055 14.4368 8.55289C8.93567 7.56366 6.18509 7.06905 3.84255 8.96483C1.5 10.8606 1.5 13.9391 1.5 20.0961V42.2232C1.5 47.8529 1.5 50.6678 3.00344 52.4252C4.50689 54.1826 7.81686 54.7778 14.4368 55.9682C20.3381 57.0294 24.9437 58.7202 28.2773 60.4192C31.5572 62.0909 33.1973 62.9268 34 62.9268C34.8027 62.9268 36.4428 62.0909 39.7227 60.4192C43.0563 58.7202 47.6619 57.0294 53.5632 55.9682C60.1831 54.7778 63.4931 54.1826 64.9966 52.4252C66.5 50.6678 66.5 47.8529 66.5 42.2232V20.0961C66.5 13.9391 66.5 10.8606 64.1575 8.96483C61.8149 7.06905 56.75 8.55289 53.5 10.9268" stroke="#49ABC6" stroke-width="1.67143" stroke-linecap="round" stroke-linejoin="round"/>
</svg>
