<svg width="12" height="9" viewBox="0 0 12 9" fill="none" xmlns="http://www.w3.org/2000/svg">
<path fill-rule="evenodd" clip-rule="evenodd" d="M2.76015 1.85649C3.61298 1.1907 4.71472 0.625 6 0.625C7.28528 0.625 8.38702 1.1907 9.23985 1.85649C10.0934 2.52288 10.7244 3.30987 11.0773 3.80476L11.1039 3.84187C11.2305 4.01791 11.375 4.2189 11.375 4.5C11.375 4.7811 11.2305 4.98209 11.1039 5.15813L11.0773 5.19524C10.7244 5.69013 10.0934 6.47712 9.23985 7.14351C8.38702 7.8093 7.28528 8.375 6 8.375C4.71472 8.375 3.61298 7.8093 2.76015 7.14351C1.90657 6.47712 1.27563 5.69013 0.922706 5.19524L0.896096 5.15813C0.769518 4.98209 0.625 4.7811 0.625 4.5C0.625 4.2189 0.769518 4.01791 0.896096 3.84187L0.922705 3.80476C1.27563 3.30987 1.90656 2.52288 2.76015 1.85649ZM4.25 4.5C4.25 5.4665 5.0335 6.25 6 6.25C6.9665 6.25 7.75 5.4665 7.75 4.5C7.75 3.5335 6.9665 2.75 6 2.75C5.0335 2.75 4.25 3.5335 4.25 4.5Z" fill="#00632B"/>
</svg>
