<svg width="18" height="13" viewBox="0 0 18 13" fill="none" xmlns="http://www.w3.org/2000/svg">
<path d="M16.158 5.51677C16.386 5.83651 16.5 5.99638 16.5 6.23303C16.5 6.46968 16.386 6.62955 16.158 6.94929C15.1334 8.38595 12.5169 11.483 9 11.483C5.48308 11.483 2.86657 8.38595 1.84203 6.94929C1.61401 6.62955 1.5 6.46968 1.5 6.23303C1.5 5.99638 1.61401 5.83651 1.84203 5.51677C2.86657 4.08011 5.48308 0.983032 9 0.983032C12.5169 0.983032 15.1334 4.08011 16.158 5.51677Z" stroke="#141B34" stroke-width="1.5"/>
<path d="M11.25 6.23303C11.25 4.99039 10.2426 3.98303 9 3.98303C7.75736 3.98303 6.75 4.99039 6.75 6.23303C6.75 7.47567 7.75736 8.48303 9 8.48303C10.2426 8.48303 11.25 7.47567 11.25 6.23303Z" stroke="#141B34" stroke-width="1.5"/>
</svg>
