<svg width="13" height="14" viewBox="0 0 13 14" fill="none" xmlns="http://www.w3.org/2000/svg">
<path d="M10.875 3.12305L10.5135 8.97102C10.4211 10.4651 10.3749 11.2122 10.0004 11.7493C9.81528 12.0149 9.57688 12.239 9.30041 12.4074C8.74123 12.748 7.99274 12.748 6.49577 12.748C4.99682 12.748 4.24734 12.748 3.68778 12.4068C3.41113 12.238 3.17266 12.0135 2.98757 11.7475C2.61318 11.2096 2.56801 10.4614 2.47769 8.96522L2.125 3.12305" stroke="#141B34" stroke-width="1.2" stroke-linecap="round"/>
<path d="M1.25 3.1237H11.75M8.86584 3.1237L8.46761 2.30221C8.20308 1.75651 8.07082 1.48367 7.84267 1.3135C7.79206 1.27576 7.73847 1.24218 7.68243 1.21311C7.42978 1.08203 7.12657 1.08203 6.52014 1.08203C5.89848 1.08203 5.58766 1.08203 5.33081 1.2186C5.27389 1.24887 5.21957 1.2838 5.16842 1.32305C4.93762 1.50011 4.8087 1.78294 4.55085 2.3486L4.19754 3.1237" stroke="#141B34" stroke-width="1.2" stroke-linecap="round"/>
</svg>
