<svg width="60" height="61" viewBox="0 0 60 61" fill="none" xmlns="http://www.w3.org/2000/svg">
<path opacity="0.4" d="M15.4141 13.1989V10.2822C15.4141 6.15744 15.4141 4.09504 16.6955 2.81363C17.9769 1.53223 20.0393 1.53223 24.1641 1.53223H35.8307C39.9555 1.53223 42.0179 1.53223 43.2993 2.81363C44.5807 4.09504 44.5807 6.15744 44.5807 10.2822V13.1989C44.5807 17.3237 44.5807 19.3861 43.2993 20.6675C42.0179 21.9489 39.9555 21.9489 35.8307 21.9489H32.9141L24.1641 27.7822V21.9489C20.0393 21.9489 17.9769 21.9489 16.6955 20.6675C15.4141 19.3861 15.4141 17.3237 15.4141 13.1989Z" fill="#2D7083"/>
<path opacity="0.4" d="M5.46963 50.3599C3.63567 51.5884 -1.17287 54.0969 1.75585 57.2359C3.18651 58.7692 4.77989 59.8659 6.78316 59.8659H12.4987H18.2142C20.2175 59.8659 21.8109 58.7692 23.2415 57.2359C26.1703 54.0969 21.3617 51.5884 19.5278 50.3599C15.2272 47.479 9.77024 47.479 5.46963 50.3599Z" fill="#2D7083"/>
<path opacity="0.4" d="M40.4696 50.3599C38.6357 51.5884 33.8271 54.0969 36.7559 57.2359C38.1865 58.7692 39.7799 59.8659 41.7832 59.8659H47.4987H53.2142C55.2175 59.8659 56.8109 58.7692 58.2415 57.2359C61.1703 54.0969 56.3617 51.5884 54.5278 50.3599C50.2272 47.479 44.7702 47.479 40.4696 50.3599Z" fill="#2D7083" stroke="#2D7083" stroke-width="1.5"/>
<path d="M15.4141 13.1989V10.2822C15.4141 6.15744 15.4141 4.09504 16.6955 2.81363C17.9769 1.53223 20.0393 1.53223 24.1641 1.53223H35.8307C39.9555 1.53223 42.0179 1.53223 43.2993 2.81363C44.5807 4.09504 44.5807 6.15744 44.5807 10.2822V13.1989C44.5807 17.3237 44.5807 19.3861 43.2993 20.6675C42.0179 21.9489 39.9555 21.9489 35.8307 21.9489H32.9141L24.1641 27.7822V21.9489C20.0393 21.9489 17.9769 21.9489 16.6955 20.6675C15.4141 19.3861 15.4141 17.3237 15.4141 13.1989Z" stroke="#2D7083" stroke-width="1.5" stroke-linejoin="round"/>
<path d="M5.46963 50.3599C3.63567 51.5884 -1.17287 54.0969 1.75585 57.2359C3.18651 58.7692 4.77989 59.8659 6.78316 59.8659H12.4987H18.2142C20.2175 59.8659 21.8109 58.7692 23.2415 57.2359C26.1703 54.0969 21.3617 51.5884 19.5278 50.3599C15.2272 47.479 9.77024 47.479 5.46963 50.3599Z" stroke="#2D7083" stroke-width="1.5"/>
<path d="M40.4696 50.3599C38.6357 51.5884 33.8271 54.0969 36.7559 57.2359C38.1865 58.7692 39.7799 59.8659 41.7832 59.8659H47.4987H53.2142C55.2175 59.8659 56.8109 58.7692 58.2415 57.2359C61.1703 54.0969 56.3617 51.5884 54.5278 50.3599C50.2272 47.479 44.7702 47.479 40.4696 50.3599Z" stroke="#2D7083" stroke-width="1.5"/>
<path d="M18.3307 35.0736C18.3307 38.2952 15.7191 40.9069 12.4974 40.9069C9.27573 40.9069 6.66406 38.2952 6.66406 35.0736C6.66406 31.8519 9.27573 29.2402 12.4974 29.2402C15.7191 29.2402 18.3307 31.8519 18.3307 35.0736Z" stroke="#2D7083" stroke-width="1.5"/>
<path d="M53.3307 35.0736C53.3307 38.2952 50.7191 40.9069 47.4974 40.9069C44.2757 40.9069 41.6641 38.2952 41.6641 35.0736C41.6641 31.8519 44.2757 29.2402 47.4974 29.2402C50.7191 29.2402 53.3307 31.8519 53.3307 35.0736Z" stroke="#2D7083" stroke-width="1.5"/>
</svg>
