<svg width="28" height="28" viewBox="0 0 28 28" fill="none" xmlns="http://www.w3.org/2000/svg">
<path d="M1.45703 13.9147C1.45703 7.94359 1.45703 4.95803 3.31202 3.10304C5.16701 1.24805 8.15257 1.24805 14.1237 1.24805C20.0948 1.24805 23.0804 1.24805 24.9354 3.10304C26.7904 4.95803 26.7904 7.94359 26.7904 13.9147C26.7904 19.8858 26.7904 22.8714 24.9354 24.7264C23.0804 26.5814 20.0948 26.5814 14.1237 26.5814C8.15257 26.5814 5.16701 26.5814 3.31202 24.7264C1.45703 22.8714 1.45703 19.8858 1.45703 13.9147Z" stroke="#1B4D5B" stroke-width="2"/>
<circle cx="20.125" cy="7.91406" r="2" stroke="#1B4D5B" stroke-width="2"/>
<path d="M19.4583 27.2487C18.6323 24.2819 16.7043 21.6249 13.9604 19.6943C11.0018 17.6126 7.28717 16.5109 3.47926 16.5856C3.02711 16.5845 2.57534 16.599 2.125 16.6288" stroke="#1B4D5B" stroke-width="2" stroke-linejoin="round"/>
<path d="M15.457 21.9147C17.7257 20.1458 20.1697 19.2384 22.6387 19.2481C24.0387 19.2467 25.432 19.5436 26.7904 20.1303" stroke="#1B4D5B" stroke-width="2" stroke-linejoin="round"/>
</svg>
