<svg width="32" height="32" viewBox="0 0 32 32" fill="none" xmlns="http://www.w3.org/2000/svg">
<path d="M0 4C0 1.79086 1.79086 0 4 0H28C30.2091 0 32 1.79086 32 4V28C32 30.2091 30.2091 32 28 32H4C1.79086 32 0 30.2091 0 28V4Z" fill="#DFF8FF"/>
<path opacity="0.4" d="M20.3516 20.5C20.3516 19.1193 21.4709 18 22.8516 18H26.3516V19.5714C26.3516 21.465 24.8166 23 22.923 23C21.5347 23 20.3516 21.9186 20.3516 20.5Z" fill="#3B8FA7"/>
<path opacity="0.4" d="M12.3525 9C13.4443 9 14.116 10.916 15.4595 14.7479L15.8984 16H8.80664L9.24561 14.7479C10.589 10.916 11.2608 9 12.3525 9Z" fill="#3B8FA7"/>
<path d="M18.3516 23L15.4585 14.7479C14.115 10.916 13.4433 9 12.3516 9C11.2598 9 10.5881 10.916 9.24465 14.7479L6.35156 23" stroke="#3B8FA7" stroke-width="1.5" stroke-linecap="round"/>
<path d="M8.85156 16H15.8516" stroke="#3B8FA7" stroke-width="1.5" stroke-linecap="round"/>
<path d="M26.3188 18.0329V22.5329M26.3188 18.0329C26.366 17.2098 26.3678 16.5828 26.269 16.071C26.036 14.8646 24.7754 14.1376 23.5556 13.9897C22.3881 13.8482 21.4511 14.1487 20.5031 15.53M26.3188 18.0329H23.4752C23.0383 18.0329 22.5977 18.054 22.1768 18.171C19.6041 18.8862 19.7927 22.494 22.3729 22.9387C22.6595 22.9881 22.9521 23.0093 23.2423 22.9963C23.9199 22.9661 24.5451 22.6387 25.0817 22.2238C25.7101 21.7377 26.3188 21.0592 26.3188 20.0329V18.0329Z" stroke="#3B8FA7" stroke-width="1.5" stroke-linecap="round" stroke-linejoin="round"/>
</svg>
