<svg width="131" height="46" viewBox="0 0 131 46" fill="none" xmlns="http://www.w3.org/2000/svg">
<path d="M44.2058 8.97955C44.891 8.12738 44.3148 6.84794 43.2289 6.81433L42.9752 6.80713C43.2195 7.52007 43.1056 8.30022 42.6267 8.89553L40.4763 11.5697C40.379 11.6897 40.3459 11.8505 40.3909 12.0017L41.3464 15.312C41.5788 16.1137 41.3464 16.9635 40.7371 17.53C40.6991 17.566 40.6517 17.5852 40.6114 17.6188L41.0382 17.7869C42.0506 18.1854 43.0748 17.2324 42.769 16.1762L41.8135 12.8659C41.6926 12.4458 41.7827 11.9945 42.0553 11.6561L44.2058 8.98195V8.97955Z" fill="#002A3A"/>
<path d="M34.8924 16.7633L32.2891 18.5612C32.7111 18.8949 33.3204 18.9789 33.8326 18.626L36.1371 17.0345L35.3215 16.7153C35.1769 16.6576 35.0157 16.6793 34.89 16.7657L34.8924 16.7633Z" fill="#002A3A"/>
<path d="M37.6141 5.23211L38.2163 5.25132L36.9147 3.20611C36.6278 2.75723 36.156 2.56999 35.7031 2.6084L37.2371 5.01607C37.3201 5.14809 37.4624 5.22731 37.6141 5.23211Z" fill="#002A3A"/>
<path d="M49.9622 23.0931L48.0156 24.0245C48.2646 24.2958 48.6676 24.4182 49.0494 24.2358L50.773 23.4124L50.2562 23.1075C50.1661 23.0547 50.0547 23.0499 49.9622 23.0931Z" fill="#002A3A"/>
<path d="M56.642 17.2875L56.4713 17.2539C56.5614 17.7628 56.4002 18.2765 56.0161 18.6246L54.2805 20.1945C54.2023 20.2665 54.1644 20.3721 54.1762 20.4753L54.4702 22.811C54.5413 23.3775 54.2924 23.9272 53.8229 24.2441C53.7945 24.2633 53.7589 24.2705 53.7305 24.2897L54.0008 24.4481C54.6433 24.825 55.4328 24.2945 55.3403 23.5503L55.0464 21.2123C55.0084 20.917 55.1175 20.6194 55.338 20.4225L57.0735 18.8526C57.626 18.3509 57.3723 17.4267 56.6444 17.2851L56.642 17.2875Z" fill="#002A3A"/>
<path d="M53.0241 15.6073L53.4272 15.6842L52.7657 14.1623C52.6211 13.8286 52.3223 13.651 52.0117 13.627L52.7918 15.4201C52.8344 15.5161 52.9198 15.5857 53.0241 15.6073Z" fill="#002A3A"/>
<path d="M62.5149 10.9502L62.7473 11.0174L62.4414 10.0956C62.375 9.89394 62.2091 9.77632 62.0312 9.74512L62.3916 10.8301C62.4106 10.8901 62.458 10.9333 62.5173 10.9502H62.5149Z" fill="#002A3A"/>
<path d="M64.5362 12.1216L64.439 12.0928C64.4651 12.3928 64.3442 12.6857 64.1 12.8681L63.0046 13.6891C62.9548 13.7251 62.9263 13.7851 62.9287 13.8475L62.9761 15.2254C62.988 15.559 62.8149 15.8663 62.5233 16.0247C62.5043 16.0343 62.4853 16.0391 62.4688 16.0463L62.6158 16.152C62.9714 16.4064 63.4598 16.14 63.4432 15.7007L63.3958 14.3228C63.3887 14.1476 63.4693 13.9819 63.6068 13.8787L64.7022 13.0578C65.0507 12.7961 64.9511 12.2416 64.5339 12.1216H64.5362Z" fill="#002A3A"/>
<path d="M60.3355 15.1467L59.1523 15.5836C59.2827 15.754 59.5104 15.8476 59.7451 15.7612L60.793 15.3747L60.5085 15.1707C60.4587 15.1347 60.3947 15.1251 60.3378 15.1467H60.3355Z" fill="#002A3A"/>
<path d="M40.9959 6.1962L37.5912 6.09297C37.1597 6.08097 36.7637 5.85292 36.529 5.48565L34.682 2.58829C34.094 1.66411 32.7118 1.82494 32.3467 2.85954L31.1991 6.10738C31.0545 6.51786 30.7178 6.82992 30.3005 6.94274L27.0073 7.82611C25.9569 8.10696 25.6819 9.48723 26.5402 10.1594L29.2336 12.2694C29.575 12.5358 29.7647 12.9559 29.741 13.3928L29.5537 16.8351C29.4944 17.9321 30.7036 18.6258 31.6022 18.0041L34.4165 16.0621C34.7721 15.8149 35.225 15.7645 35.6281 15.9205L38.8051 17.1663C39.8175 17.5624 40.8418 16.6118 40.5359 15.5556L39.5804 12.2454C39.4595 11.8253 39.5496 11.374 39.8223 11.0355L41.9727 8.36142C42.6579 7.50925 42.0818 6.2298 40.9959 6.1962Z" fill="#FFAE3B"/>
<path d="M55.2037 16.6261L52.9181 16.1869C52.6288 16.1316 52.3846 15.9348 52.2661 15.6612L51.3272 13.5055C51.0284 12.819 50.08 12.7758 49.722 13.4359L48.6029 15.5027C48.4607 15.7644 48.2023 15.9396 47.9083 15.9684L45.5918 16.2061C44.8545 16.2829 44.5202 17.1831 45.0299 17.7304L46.6256 19.4467C46.8271 19.6651 46.9101 19.9676 46.8484 20.2605L46.3553 22.5625C46.1988 23.297 46.9409 23.8948 47.6119 23.5755L49.7173 22.5697C49.9852 22.4425 50.2958 22.4569 50.5495 22.6057L52.5601 23.7915C53.2026 24.1708 53.9921 23.6403 53.8997 22.8938L53.6057 20.5557C53.5677 20.2605 53.6768 19.9652 53.8973 19.766L55.6328 18.1961C56.1853 17.6944 55.9316 16.7702 55.2037 16.6285V16.6261Z" fill="#FFAE3B"/>
<path d="M63.7325 11.6564L62.4214 11.2772C62.2554 11.2291 62.1227 11.1019 62.0681 10.9363L61.6342 9.62803C61.4967 9.21035 60.9443 9.13593 60.7025 9.5008L59.9414 10.6458C59.8442 10.7899 59.6829 10.8787 59.5122 10.8811L58.1489 10.8955C57.7151 10.9003 57.4732 11.4068 57.7411 11.7524L58.5805 12.8399C58.6871 12.9767 58.7203 13.1591 58.6682 13.3272L58.2604 14.6426C58.13 15.0627 58.533 15.4516 58.9408 15.3003L60.2212 14.8274C60.3824 14.7674 60.5649 14.7914 60.7048 14.8923L61.8144 15.6916C62.1677 15.9461 62.6585 15.6796 62.6419 15.2403L62.5945 13.8625C62.5874 13.6872 62.668 13.5216 62.8055 13.416L63.9009 12.595C64.2494 12.3334 64.1498 11.7789 63.7325 11.6588V11.6564Z" fill="#FFAE3B"/>
<path d="M38.9297 37.0902C39.1004 37.0662 39.181 37.0206 39.2 36.855C39.1004 36.9198 39.0079 36.999 38.9297 37.0902Z" fill="#002A3A"/>
<path d="M100.098 37.0902C100.268 37.0662 100.349 37.0206 100.368 36.855C100.268 36.9198 100.176 36.999 100.098 37.0902Z" fill="#002A3A"/>
<path d="M38.7466 37.1157C38.8225 37.1085 38.8747 37.1013 38.9292 37.0941C39.0098 37.0029 39.0999 36.9237 39.1995 36.8589C39.209 36.7845 39.209 36.6861 39.1995 36.5492C39.2042 36.0475 39.1615 35.9107 39.1473 35.8771C39.0809 35.7715 38.8984 35.7139 38.6897 35.7139C38.519 35.7139 38.3293 35.7523 38.1705 35.8363C37.95 35.9515 37.7769 36.3884 37.8765 36.7965C37.9002 36.8925 37.9713 37.1806 38.7419 37.1157H38.7466Z" fill="#002A3A"/>
<path d="M44.2758 39.3193C44.1857 39.773 44.015 40.2987 43.4175 40.7596C42.4881 41.4773 41.1462 41.4101 40.1504 40.6779C39.3466 41.1244 38.4741 41.3501 37.5897 41.3525C37.1392 41.3525 36.6888 41.2925 36.2383 41.1748C37.4498 42.2022 39.7023 42.8119 41.7602 41.3237C42.5 42.2166 43.6902 42.3583 44.4157 41.799C44.7453 41.5445 44.8757 41.2781 44.9563 40.8724C45.1578 39.8546 45.1934 36.89 45.1033 35.0584C44.8709 34.2711 44.6386 33.4957 44.4062 32.73C44.5343 34.4655 44.5272 38.059 44.2782 39.3193H44.2758Z" fill="#002A3A"/>
<path d="M51.8146 39.7564C51.5087 40.1429 50.6955 41.1727 49.2278 41.1727C49.0927 41.1727 48.9718 41.1535 48.8438 41.1439C49.0477 41.5111 49.3962 41.756 49.6736 41.864C50.015 41.9984 50.3991 42.0344 50.7405 42.0344C51.715 42.0344 52.2935 41.4103 52.6634 40.9422C53.3059 40.1285 53.9579 38.8658 54.4937 37.4903C54.2543 36.8206 54.1049 36.0933 54.0646 35.3203C53.4482 37.0799 52.6207 38.7386 51.8169 39.7564H51.8146Z" fill="#002A3A"/>
<path d="M49.6319 33.3524C49.6983 33.0499 49.7363 32.7258 49.7552 32.397C49.6628 31.9505 49.575 31.5376 49.4873 31.1823C49.3925 30.7862 49.2265 30.4982 49.0273 30.2773C49.1601 30.9087 49.2929 31.6024 49.4257 32.2913C49.492 32.6394 49.5608 33.0019 49.6319 33.3524Z" fill="#002A3A"/>
<path d="M33.4237 31.8057C33.1392 32.1369 32.8097 32.4154 32.4635 32.5858C31.5815 33.0227 30.645 32.8595 29.974 32.1681C29.974 32.1825 29.974 32.1945 29.9716 32.2113C29.8981 33.9277 29.9289 36.5586 29.9835 38.4502C30.0119 39.4512 29.7914 40.1857 29.3078 40.6994C28.8668 41.1675 28.2242 41.4147 27.4062 41.4435C27.6694 41.89 28.1246 42.3245 28.8241 42.3125C30.2964 42.2885 30.6805 41.4459 30.645 40.1977C30.5833 38.0589 30.5644 35.5408 30.6331 33.8965C30.645 33.594 30.6995 33.2675 30.9176 33.0395C31.0623 32.8883 31.5246 32.6842 31.802 32.9651C31.8684 33.0347 31.9324 33.1067 31.9917 33.1811C32.7551 34.1149 33.8244 33.6444 34.4338 32.8067C34.3105 32.7443 34.1872 32.677 34.0734 32.5858C33.7936 32.3674 33.5779 32.1009 33.4237 31.8057Z" fill="#002A3A"/>
<path d="M60.9005 33.3971C60.5923 33.0251 60.3386 32.6002 60.2201 32.1465C59.9664 32.2689 59.7388 32.4441 59.5467 32.6674C59.0346 33.2627 58.7951 34.1413 58.8923 35.0799C58.9492 35.6272 59.2101 36.1001 59.5467 36.3377C59.5633 35.1255 60.047 34.0405 60.8982 33.3971H60.9005Z" fill="#002A3A"/>
<path d="M65.3594 31.0013C65.7292 31.4742 65.9616 31.9927 66.0517 32.2112C66.0683 32.252 66.0754 32.3 66.092 32.3408C66.3528 31.9903 66.3694 31.4646 66.2485 31.1309C66.1465 30.8525 65.9853 30.6389 65.7648 30.4732C65.7174 30.4372 65.6605 30.4012 65.5988 30.3628C65.5538 30.5692 65.4921 30.7685 65.3926 30.9461C65.3831 30.9653 65.3712 30.9845 65.3594 31.0013Z" fill="#002A3A"/>
<path d="M66.0598 37.7731C66.2614 37.1778 66.6644 36.7097 67.1766 36.4144C67.1718 35.6703 67.0556 34.9261 66.783 34.2612C66.6976 34.0548 66.5672 33.7931 66.406 33.5435C66.5767 34.5997 66.534 35.7735 66.24 36.9401C65.6165 39.403 63.4115 41.1962 60.7536 41.3978C60.5521 41.4146 60.3529 41.4218 60.1585 41.4218C59.5373 41.4218 58.947 41.3426 58.3945 41.1914C59.3619 41.9691 60.6469 42.382 62.2023 42.262C63.7908 42.1419 65.2513 41.3426 66.1547 40.0871C65.818 39.4126 65.7753 38.6181 66.0622 37.7731H66.0598Z" fill="#002A3A"/>
<path d="M21.9086 29.5576C22.2263 29.7664 22.5298 29.9921 22.8191 30.2369C22.9092 30.3137 22.9874 30.3977 23.0704 30.4793C23.7034 30.0593 24.2535 29.5888 24.7087 29.0655C24.9103 28.4197 25.2849 28.0357 25.5552 27.8292C26.1929 26.5906 26.3874 25.1359 26.0104 23.4676C25.8847 22.9083 25.6618 22.3922 25.3821 21.9097C25.9582 25.0495 24.7467 27.7308 21.9062 29.56L21.9086 29.5576Z" fill="#002A3A"/>
<path d="M14.5957 26.2413C14.7854 25.3627 14.5175 24.7434 13.9461 24.4409C13.9342 24.5297 13.9342 24.6089 13.9152 24.7026C13.69 25.754 13.6307 26.6445 13.6094 27.4391C13.8797 27.4367 14.1428 27.4223 14.4013 27.4007C14.4487 27.0334 14.5103 26.6493 14.5981 26.2389L14.5957 26.2413Z" fill="#002A3A"/>
<path d="M8.10634 24.143C7.57051 24.6135 6.94932 24.844 6.32812 24.8368C6.41822 24.9544 6.51543 25.0696 6.62687 25.1728C7.07261 25.5857 7.58473 25.7562 8.08975 25.6841C8.11346 24.9592 8.22489 24.3639 8.39086 23.8838C8.29839 23.9726 8.20355 24.059 8.10634 24.1454V24.143Z" fill="#002A3A"/>
<path d="M24.6087 36.8418C24.2436 37.9268 23.5869 38.9134 22.6883 39.6912C21.0879 41.0762 19.146 41.914 16.749 42.2477C15.5635 42.4133 14.3543 42.4949 13.1286 42.4949C11.4452 42.4949 9.7286 42.3389 7.99543 42.0292C7.88163 42.01 7.76071 41.974 7.64453 41.9452C7.91008 42.214 8.25387 42.4421 8.68064 42.6125C8.99361 42.7397 9.32317 42.843 9.6551 42.903C12.4742 43.4095 15.3122 43.5127 18.1431 43.1166C20.1679 42.8334 22.0576 42.1348 23.6461 40.7594C24.1298 40.3417 24.5234 39.8616 24.8269 39.3479C24.8174 39.3047 24.8008 39.2591 24.7937 39.2183C24.7225 38.8462 24.6585 37.9532 24.6087 36.8418Z" fill="#002A3A"/>
<path d="M18.8802 21.8999C18.4819 21.5422 17.9271 21.2517 17.1779 21.0165C14.999 20.3251 12.8722 20.5556 11.0039 21.6502C11.3667 21.6118 11.7508 21.6334 12.1514 21.7126C12.5118 21.7846 12.8224 21.9263 13.0903 22.1183C14.897 21.3549 16.8744 21.2781 18.8802 21.8975V21.8999Z" fill="#002A3A"/>
<path d="M14.1657 33.2433C15.3251 33.1377 16.8164 32.9841 18.2319 33.3345C18.0944 33.1905 17.9426 33.0561 17.7601 32.9457C16.4679 32.1703 14.8793 32.1967 13.4923 32.3119C13.4734 33.5602 13.4639 35.3245 13.5706 36.7528C13.7555 36.7672 13.9547 36.7768 14.1586 36.7864C14.1301 35.4518 14.1538 34.1123 14.1681 33.2433H14.1657Z" fill="#002A3A"/>
<path d="M105.448 39.3193C105.358 39.773 105.185 40.2987 104.589 40.7596C103.66 41.4797 102.318 41.4125 101.322 40.6779C100.518 41.1244 99.646 41.3501 98.7616 41.3525C98.3111 41.3525 97.8583 41.2925 97.4102 41.1748C98.6217 42.2022 100.876 42.8119 102.932 41.3237C103.672 42.2166 104.862 42.3583 105.588 41.799C105.917 41.5445 106.048 41.2781 106.128 40.8724C106.33 39.8546 106.365 36.8924 106.278 35.0584C106.045 34.2711 105.813 33.4957 105.58 32.73C105.706 34.4655 105.701 38.059 105.452 39.3193H105.448Z" fill="#002A3A"/>
<path d="M99.9161 37.1157C99.992 37.1085 100.044 37.1013 100.099 37.0941C100.179 37.0029 100.269 36.9237 100.369 36.8589C100.378 36.7845 100.378 36.6861 100.369 36.5492C100.374 36.0475 100.331 35.9083 100.317 35.8771C100.25 35.7715 100.068 35.7139 99.8592 35.7139C99.6885 35.7139 99.4988 35.7523 99.3424 35.8363C99.1219 35.9515 98.9488 36.3884 99.0484 36.7965C99.0721 36.8925 99.1432 37.1806 99.9138 37.1157H99.9161Z" fill="#002A3A"/>
<path d="M112.983 39.7564C112.677 40.1429 111.863 41.1727 110.396 41.1727C110.261 41.1727 110.14 41.1535 110.012 41.1439C110.216 41.5111 110.564 41.756 110.842 41.864C111.183 41.9984 111.567 42.0344 111.908 42.0344C112.883 42.0344 113.461 41.4103 113.831 40.9422C114.474 40.1285 115.126 38.8658 115.662 37.4903C115.422 36.8206 115.273 36.0933 115.233 35.3203C114.616 37.0799 113.789 38.7386 112.985 39.7564H112.983Z" fill="#002A3A"/>
<path d="M110.801 33.3499C110.868 33.0475 110.906 32.7234 110.925 32.3946C110.835 31.9505 110.745 31.5352 110.659 31.1823C110.562 30.7862 110.396 30.4982 110.199 30.2773C110.332 30.9087 110.465 31.6048 110.598 32.2913C110.664 32.6394 110.733 32.9995 110.801 33.3523V33.3499Z" fill="#002A3A"/>
<path d="M94.5917 31.8057C94.3072 32.1369 93.9776 32.4154 93.6315 32.5858C92.7495 33.0227 91.813 32.8595 91.142 32.1681C91.142 32.1825 91.142 32.1945 91.1396 32.2113C91.0661 33.9325 91.0969 36.561 91.1514 38.4502C91.1799 39.4512 90.9594 40.1857 90.4757 40.6994C90.0347 41.1675 89.3922 41.4147 88.5742 41.4435C88.8374 41.89 89.2926 42.3245 89.9921 42.3125C91.4644 42.2885 91.8485 41.4459 91.8129 40.1977C91.7513 38.0589 91.7323 35.5408 91.8011 33.8965C91.813 33.594 91.8675 33.2675 92.0856 33.0395C92.2302 32.8883 92.6926 32.6842 92.97 32.9651C93.0387 33.0347 93.1004 33.1067 93.1596 33.1811C93.9231 34.1149 94.9924 33.6444 95.6017 32.8067C95.4784 32.7443 95.3552 32.677 95.2413 32.5858C94.9616 32.3674 94.7458 32.1009 94.5917 31.8057Z" fill="#002A3A"/>
<path d="M126.526 31.0013C126.896 31.4766 127.128 31.9927 127.218 32.2112C127.235 32.252 127.242 32.3 127.256 32.3408C127.517 31.9903 127.533 31.4646 127.413 31.1309C127.311 30.8525 127.149 30.6389 126.929 30.4732C126.881 30.4372 126.825 30.4012 126.763 30.3628C126.718 30.5692 126.656 30.7709 126.557 30.9461C126.547 30.9653 126.535 30.9845 126.523 31.0013H126.526Z" fill="#002A3A"/>
<path d="M122.066 33.3971C121.756 33.0251 121.504 32.6002 121.386 32.1465C121.132 32.2689 120.907 32.4441 120.715 32.665C120.203 33.2603 119.963 34.1389 120.06 35.0775C120.117 35.6248 120.378 36.0977 120.715 36.3353C120.731 35.1231 121.215 34.0381 122.066 33.3971Z" fill="#002A3A"/>
<path d="M127.947 34.2675C127.862 34.0611 127.731 33.7995 127.57 33.5498C127.741 34.606 127.698 35.7798 127.404 36.9465C126.781 39.4094 124.576 41.2025 121.918 41.4041C121.716 41.4209 121.517 41.4281 121.323 41.4281C120.701 41.4281 120.111 41.3489 119.559 41.1977C120.526 41.9755 121.811 42.3883 123.366 42.2683C125.564 42.1003 127.537 40.6504 128.094 38.454C128.424 37.1529 128.481 35.559 127.949 34.2699L127.947 34.2675Z" fill="#002A3A"/>
<path d="M75.3337 33.2433C76.4931 33.1377 77.9844 32.9841 79.3998 33.3345C79.2647 33.1905 79.1106 33.0561 78.928 32.9457C77.6359 32.1703 76.0473 32.1967 74.6603 32.3119C74.6413 33.5602 74.6319 35.3245 74.7385 36.7528C74.9235 36.7672 75.1226 36.7768 75.3242 36.7864C75.2957 35.4518 75.3194 34.1123 75.3337 33.2457V33.2433Z" fill="#002A3A"/>
<path d="M80.0482 21.8999C79.6499 21.5422 79.0951 21.2517 78.3459 21.0165C76.1669 20.3251 74.0402 20.5556 72.1719 21.6502C72.5323 21.6118 72.9187 21.6334 73.3194 21.7126C73.6798 21.7846 73.9904 21.9263 74.2583 22.1183C76.065 21.3549 78.0424 21.2781 80.0458 21.8975L80.0482 21.8999Z" fill="#002A3A"/>
<path d="M75.7637 26.2413C75.9533 25.3627 75.6854 24.7434 75.114 24.4409C75.1022 24.5297 75.1045 24.6089 75.0832 24.7026C74.858 25.754 74.8011 26.6445 74.7773 27.4391C75.0476 27.4391 75.3108 27.4295 75.5692 27.4103C75.6167 27.0406 75.6783 26.6517 75.766 26.2389L75.7637 26.2413Z" fill="#002A3A"/>
<path d="M85.7806 36.8418C85.4155 37.9268 84.7587 38.9134 83.8601 39.6912C82.2597 41.0762 80.3179 41.914 77.9209 42.2477C76.7354 42.4133 75.5262 42.4949 74.3004 42.4949C72.6171 42.4949 70.9005 42.3389 69.1673 42.0292C69.0535 42.01 68.935 41.9764 68.8164 41.9452C69.082 42.214 69.4257 42.4421 69.8525 42.6125C70.1655 42.7397 70.495 42.843 70.827 42.903C73.646 43.4095 76.4841 43.5127 79.315 43.1166C81.3398 42.8334 83.2295 42.1348 84.818 40.7594C85.3017 40.3417 85.6953 39.8616 85.9987 39.3479C85.9893 39.3047 85.9727 39.2591 85.9655 39.2183C85.8944 38.8462 85.8304 37.9532 85.7806 36.8418Z" fill="#002A3A"/>
<path d="M83.0766 29.5576C83.3943 29.7664 83.7001 29.9921 83.987 30.2369C84.0771 30.3137 84.1554 30.3977 84.2384 30.4793C84.8714 30.0593 85.4215 29.5888 85.8767 29.0655C86.0782 28.4197 86.4528 28.0333 86.7231 27.8292C87.3609 26.5906 87.5553 25.1359 87.1783 23.4676C87.0527 22.9083 86.8298 22.3922 86.55 21.9097C87.1262 25.0519 85.917 27.7308 83.0742 29.56L83.0766 29.5576Z" fill="#002A3A"/>
<path d="M69.2743 24.143C68.7385 24.6135 68.1173 24.844 67.4961 24.8368C67.5862 24.9544 67.6834 25.0672 67.7948 25.1728C68.2406 25.5857 68.7527 25.7562 69.2577 25.6841C69.2814 24.9592 69.3929 24.3639 69.5588 23.8838C69.4664 23.9726 69.3715 24.059 69.2743 24.1454V24.143Z" fill="#002A3A"/>
<path d="M40.3294 28.1286C38.3236 27.5525 35.4144 28.4743 34.5608 29.3817C34.3664 29.5881 34.172 29.905 34.0843 30.193C33.8828 30.8531 34.0724 31.4989 34.5917 31.9021C35.073 32.2766 35.7511 32.2934 36.2442 31.8397C37.1333 31.0236 38.039 30.9156 38.4966 30.906C39.6039 30.882 39.9809 31.5541 39.8528 32.8743C38.6697 32.2886 36.8109 32.4063 35.6254 33.1144C32.9842 34.6915 33.4892 37.464 33.9776 38.5226C34.6438 39.9677 37.6146 41.5064 40.2511 39.5981C40.9909 40.4934 42.1811 40.6327 42.9066 40.0733C43.2362 39.8189 43.3666 39.5524 43.4472 39.1468C43.689 37.9201 43.6938 33.8609 43.5254 32.3702C43.2931 30.3178 42.2831 28.6903 40.3318 28.1286H40.3294ZM38.8238 37.9657C37.9229 38.045 37.2424 37.7521 37.0598 36.9959C36.8773 36.2494 37.1713 35.3924 37.7853 35.0684C38.4397 34.7227 39.4569 34.7491 39.8836 35.4356C40.0496 35.7021 40.0567 36.1942 40.052 36.499C40.1065 37.5385 39.6537 37.8937 38.8238 37.9681V37.9657Z" fill="#54C8E8"/>
<path d="M51.5514 28.1763C50.1003 28.6804 50.1833 29.9287 50.3303 30.3296C51.1886 32.6892 49.9533 35.4474 49.3701 35.9707C48.9931 34.9385 48.4359 31.3522 47.976 29.4582C47.6417 28.0803 46.5083 27.8763 45.8255 28.0467C45.1853 28.2051 44.0994 28.9085 44.5665 30.3728C45.477 33.2173 46.2475 35.9851 47.2173 39.1777C47.3714 39.6866 47.8266 40.0059 48.1609 40.1379C48.5023 40.2699 48.8864 40.3083 49.2278 40.3083C50.2023 40.3083 50.7808 39.6842 51.1507 39.2161C52.9929 36.8852 54.9181 30.8937 53.9318 29.0285C53.6757 28.5436 52.8957 27.7106 51.5514 28.1787V28.1763Z" fill="#54C8E8"/>
<path d="M31.4238 28.0895C30.5892 28.1255 29.3753 28.7593 29.169 29.2898C29.1572 29.0377 29.0291 28.7761 28.875 28.6392C28.2159 28.0463 26.8265 27.9623 26.101 28.4784C25.7999 28.692 25.4727 29.1001 25.4253 29.8323C25.2688 32.2447 25.4348 38.0179 25.6316 39.0573C25.7264 39.5662 26.2362 40.6056 27.3126 40.5888C28.7849 40.5648 29.169 39.7222 29.1335 38.474C29.0718 36.3351 29.0529 33.817 29.1216 32.1727C29.1335 31.8703 29.188 31.5438 29.4061 31.3158C29.5508 31.1645 30.0131 30.9605 30.2905 31.2413C30.3569 31.311 30.4209 31.383 30.4802 31.4574C31.6941 32.9409 33.6786 30.8789 33.3633 29.4362C33.1807 28.6008 32.3746 28.0487 31.4214 28.0895H31.4238Z" fill="#54C8E8"/>
<path d="M64.0327 30.9652C64.8032 30.8212 64.917 29.9042 64.7368 29.4097C64.6349 29.1312 64.4737 28.9176 64.2532 28.752C63.8145 28.4183 62.667 27.9334 61.5266 27.943C60.002 27.9574 58.4751 28.2863 57.0929 29.4433C56.1303 30.2499 55.0681 31.6853 54.9092 34.3619C54.6911 38.025 56.9174 40.8287 60.6872 40.5407C62.8851 40.3726 64.8578 38.9228 65.4149 36.7263C65.7445 35.4253 65.8014 33.8314 65.2703 32.5423C65.0617 32.0334 64.5851 31.2052 64.035 30.9652H64.0327ZM59.6037 37.3072C58.7573 37.0864 58.1527 36.179 58.0484 35.1684C57.8302 33.0584 59.0157 31.1356 61.0903 31.0732C60.7133 31.9326 61.4815 32.924 62.1074 33.3849C62.5295 33.6969 62.6931 34.2899 62.7073 34.7267C62.7713 36.7071 61.1614 37.7129 59.6037 37.3072Z" fill="#54C8E8"/>
<path d="M24.499 21.7402C23.9395 19.2534 21.6705 17.501 19.2876 16.6873C17.8153 16.1856 10.3847 14.45 4.98128 20.0095C3.99733 21.0225 4.13722 22.542 5.11168 23.4494C5.85379 24.1383 6.78558 24.1623 7.54666 23.4926C7.87859 23.1997 8.18445 22.8805 8.49267 22.5612C10.9917 19.9759 14.1782 19.1645 17.4288 20.1943C18.6665 20.5856 20.0203 21.2817 20.4067 22.8637C20.7861 24.4216 19.9681 25.6314 18.8656 26.57C17.1514 28.0343 14.9559 28.4327 12.7391 28.2671C12.7628 27.2637 12.7557 26.0491 13.0852 24.5224C13.3199 23.4374 12.8623 22.7364 11.9851 22.5564C10.3634 22.2275 8.96923 23.1373 8.9313 25.8546C8.90048 28.0727 8.70606 33.5938 9.01191 37.1056C8.30062 37.0192 8.0659 36.9928 7.42811 36.9448C6.65044 36.8872 5.94389 37.3169 5.69257 38.0562C5.2492 39.3573 5.86328 40.3679 7.17205 40.8936C7.48501 41.0208 7.81458 41.124 8.14651 41.184C10.9656 41.6905 13.8036 41.7938 16.6345 41.3977C18.6593 41.1144 20.549 40.4159 22.1375 39.0404C24.6768 36.8416 24.7669 32.996 22.275 30.8932C21.6491 30.3651 20.9283 29.9162 20.1436 29.5754C20.3214 29.477 20.5087 29.3713 20.6984 29.2705C23.6644 27.6886 25.2696 25.1609 24.5014 21.7402H24.499ZM18.6404 36.5127C17.8295 37.2113 16.8432 37.4969 15.8284 37.6193C15.0199 37.7154 13.4456 37.6362 12.7865 37.5401C12.5731 35.6774 12.63 32.9576 12.6537 31.5246C14.228 31.3805 16.414 31.1429 18.1923 32.2087C19.8306 33.1905 20.1009 35.2573 18.6427 36.5127H18.6404Z" fill="#54C8E8"/>
<path d="M101.493 28.1286C99.4876 27.5525 96.5785 28.4743 95.7249 29.3817C95.5305 29.5881 95.3361 29.905 95.2483 30.193C95.0468 30.8531 95.2365 31.4989 95.7557 31.9021C96.237 32.2766 96.9151 32.2934 97.4083 31.8397C98.2974 31.0236 99.2031 30.9156 99.6607 30.906C100.768 30.882 101.145 31.5541 101.017 32.8743C99.8338 32.2886 97.9749 32.4063 96.7895 33.1144C94.1482 34.6915 94.6532 37.464 95.1417 38.5226C95.8079 39.9677 98.7787 41.5064 101.415 39.5981C102.155 40.4934 103.345 40.6327 104.071 40.0733C104.4 39.8189 104.531 39.5524 104.611 39.1468C104.853 37.9201 104.858 33.8609 104.689 32.3702C104.457 30.3178 103.447 28.6903 101.496 28.1286H101.493ZM99.9879 37.9657C99.0869 38.045 98.4065 37.7521 98.2239 36.9959C98.0413 36.2494 98.3353 35.3924 98.9494 35.0684C99.6038 34.7227 100.621 34.7491 101.048 35.4356C101.214 35.7021 101.221 36.1942 101.216 36.499C101.271 37.5385 100.818 37.8937 99.9879 37.9681V37.9657Z" fill="#54C8E8"/>
<path d="M112.719 28.1763C111.268 28.6804 111.351 29.9287 111.498 30.3296C112.357 32.6892 111.121 35.4474 110.538 35.9707C110.161 34.9385 109.604 31.3522 109.144 29.4582C108.81 28.0803 107.676 27.8763 106.993 28.0467C106.353 28.2051 105.267 28.9085 105.734 30.3728C106.645 33.2173 107.415 35.9851 108.385 39.1777C108.539 39.6866 108.995 40.0059 109.329 40.1379C109.67 40.2699 110.054 40.3083 110.396 40.3083C111.37 40.3083 111.949 39.6842 112.319 39.2161C114.161 36.8852 116.086 30.8937 115.1 29.0285C114.844 28.5436 114.064 27.7106 112.719 28.1787V28.1763Z" fill="#54C8E8"/>
<path d="M92.5918 28.0895C91.7572 28.1255 90.5433 28.7593 90.337 29.2898C90.3251 29.0377 90.1971 28.7761 90.043 28.6392C89.3839 28.0463 87.9945 27.9623 87.269 28.4784C86.9679 28.692 86.6407 29.1001 86.5933 29.8323C86.4368 32.2447 86.6027 38.0179 86.7995 39.0573C86.8944 39.5662 87.4041 40.6056 88.4805 40.5888C89.9529 40.5648 90.337 39.7222 90.3014 38.474C90.2398 36.3351 90.2208 33.817 90.2896 32.1727C90.3014 31.8703 90.356 31.5438 90.5741 31.3158C90.7187 31.1645 91.1811 30.9605 91.4585 31.2413C91.5248 31.311 91.5889 31.383 91.6481 31.4574C92.8621 32.9409 94.8466 30.8789 94.5312 29.4362C94.3487 28.6008 93.5425 28.0487 92.5894 28.0895H92.5918Z" fill="#54C8E8"/>
<path d="M126.436 32.5423C126.227 32.0334 125.751 31.2052 125.201 30.9652C125.971 30.8212 126.085 29.9042 125.905 29.4097C125.803 29.1312 125.642 28.9176 125.421 28.752C124.982 28.4183 123.835 27.9334 122.695 27.943C121.17 27.9574 119.643 28.2863 118.261 29.4433C117.298 30.2499 116.236 31.6853 116.077 34.3619C115.859 38.025 118.085 40.8287 121.855 40.5407C124.053 40.3726 126.026 38.9228 126.583 36.7263C126.912 35.4253 126.969 33.8314 126.438 32.5423H126.436ZM120.774 37.3096C119.928 37.0888 119.323 36.1814 119.219 35.1708C119.001 33.0608 120.186 31.138 122.261 31.0756C121.884 31.935 122.652 32.9264 123.278 33.3873C123.7 33.6993 123.863 34.2923 123.878 34.7291C123.942 36.7095 122.332 37.7153 120.774 37.3096Z" fill="#54C8E8"/>
<path d="M85.667 21.7402C85.1074 19.2534 82.8384 17.501 80.4556 16.6873C78.9832 16.1856 71.5527 14.45 66.1493 20.0095C65.1653 21.0225 65.3052 22.542 66.2797 23.4494C67.0218 24.1383 67.9536 24.1623 68.7146 23.4926C69.0466 23.1997 69.3524 22.8805 69.6606 22.5612C72.1596 19.9759 75.3462 19.1645 78.5968 20.1943C79.8344 20.5856 81.1882 21.2817 81.5747 22.8637C81.9541 24.4216 81.1361 25.6314 80.0336 26.57C78.3194 28.0343 76.1239 28.4327 73.907 28.2671C73.9307 27.2637 73.9236 26.0491 74.2532 24.5224C74.4879 23.4374 74.0303 22.7364 73.1531 22.5564C71.5313 22.2275 70.1372 23.1373 70.0993 25.8546C70.0684 28.0727 69.874 33.5938 70.1799 37.1056C69.4686 37.0192 69.2339 36.9928 68.5961 36.9448C67.8184 36.8872 67.1119 37.3169 66.8605 38.0562C66.4172 39.3573 67.0312 40.3679 68.34 40.8936C68.653 41.0208 68.9825 41.124 69.3145 41.184C72.1336 41.6905 74.9716 41.7938 77.8025 41.3977C79.8273 41.1144 81.717 40.4159 83.3055 39.0404C85.8448 36.8416 85.9349 32.996 83.443 30.8932C82.8171 30.3651 82.0963 29.9162 81.3115 29.5754C81.4893 29.477 81.6766 29.3713 81.8663 29.2705C84.8324 27.6886 86.4375 25.1609 85.6693 21.7402H85.667ZM79.8083 36.5127C78.9975 37.2113 78.0112 37.4969 76.9964 37.6193C76.1879 37.7154 74.6136 37.6362 73.9544 37.5401C73.7411 35.6774 73.798 32.9576 73.8217 31.5246C75.396 31.3805 77.582 31.1429 79.3602 32.2087C80.9986 33.1905 81.2688 35.2573 79.8107 36.5127H79.8083Z" fill="#54C8E8"/>
</svg>
