<svg width="423" height="57" viewBox="0 0 423 57" fill="none" xmlns="http://www.w3.org/2000/svg">
<g clip-path="url(#clip0_560_16407)">
<rect width="423" height="57" rx="10" fill="#FFF5D5"/>
<path opacity="0.4" d="M424.967 71.8261L415.942 25.0092C415.236 21.3478 419.424 19.5376 422.365 22.2332L444.21 42.2612C445.972 43.876 448.503 43.9811 449.865 42.4961L459.203 32.3106C461.324 29.9968 465.691 31.73 466.349 35.1473L475.375 81.9642C476.081 85.6256 471.893 87.4359 468.952 84.7402L447.106 64.7122C445.345 63.0975 442.814 62.9923 441.452 64.4773L432.114 74.6629C429.993 76.9767 425.626 75.2434 424.967 71.8261Z" fill="#FAAA44"/>
<path d="M424.967 71.8261L415.942 25.0092C415.236 21.3478 419.424 19.5376 422.365 22.2332L444.21 42.2612C445.972 43.876 448.503 43.9811 449.865 42.4961L459.203 32.3106C461.324 29.9968 465.691 31.73 466.349 35.1473L475.375 81.9642C476.081 85.6256 471.893 87.4359 468.952 84.7402L447.106 64.7122C445.345 63.0975 442.814 62.9923 441.452 64.4773L432.114 74.6629C429.993 76.9767 425.626 75.2434 424.967 71.8261Z" stroke="#FAAA44" stroke-width="1.5" stroke-linecap="round" stroke-linejoin="round"/>
<path opacity="0.4" d="M-33.1281 144.022L-29.4718 -39.827C-29.1859 -54.2055 -11.9313 -57.6608 -3.01165 -45.1257L63.2582 48.0055C68.6013 55.5143 78.065 57.9494 84.396 53.4445L127.818 22.5464C137.682 15.5273 152.756 25.5809 152.49 39.0006L148.833 222.85C148.547 237.228 131.293 240.683 122.373 228.148L56.1032 135.017C50.7602 127.508 41.2964 125.073 34.9654 129.578L-8.45668 160.476C-18.3207 167.495 -33.395 157.442 -33.1281 144.022Z" fill="#FAAA44"/>
<path d="M-33.1281 144.022L-29.4718 -39.827C-29.1859 -54.2055 -11.9313 -57.6608 -3.01164 -45.1257L63.2582 48.0055C68.6013 55.5143 78.065 57.9494 84.396 53.4445L127.818 22.5464C137.682 15.5273 152.756 25.5809 152.49 39.0006L148.833 222.85C148.547 237.228 131.293 240.683 122.373 228.148L56.1032 135.017C50.7601 127.508 41.2964 125.073 34.9654 129.578L-8.45668 160.476C-18.3207 167.495 -33.395 157.442 -33.1281 144.022Z" stroke="#FAAA44" stroke-width="1.5" stroke-linecap="round" stroke-linejoin="round"/>
</g>
<defs>
<clipPath id="clip0_560_16407">
<rect width="423" height="57" rx="10" fill="white"/>
</clipPath>
</defs>
</svg>
